<?xml version="1.0" encoding="UTF-8" standalone="no"?>
<!DOCTYPE svg PUBLIC "-//W3C//DTD SVG 1.1//EN"
 "http://www.w3.org/Graphics/SVG/1.1/DTD/svg11.dtd">
<!-- Generated by graphviz version 2.43.0 (0)
 -->
<!-- Title: SCGraph Pages: 1 -->
<svg width="282pt" height="620pt"
 viewBox="0.00 0.00 281.82 620.00" xmlns="http://www.w3.org/2000/svg" xmlns:xlink="http://www.w3.org/1999/xlink">
<g id="graph0" class="graph" transform="scale(1 1) rotate(0) translate(4 616)">
<title>SCGraph</title>
<polygon fill="white" stroke="transparent" points="-4,4 -4,-616 277.82,-616 277.82,4 -4,4"/>
<!-- start -->
<g id="node1" class="node">
<title>start</title>
<text text-anchor="middle" x="90.08" y="-590.3" font-family="Helvetica,sans-Serif" font-size="14.00">start</text>
</g>
<!-- not_empty -->
<g id="node2" class="node">
<title>not_empty</title>
<polygon fill="none" stroke="black" points="90.08,-540 -0.08,-522 90.08,-504 180.23,-522 90.08,-540"/>
<text text-anchor="middle" x="90.08" y="-518.3" font-family="Helvetica,sans-Serif" font-size="14.00">not_empty?</text>
</g>
<!-- start&#45;&gt;not_empty -->
<g id="edge1" class="edge">
<title>start&#45;&gt;not_empty</title>
<path fill="none" stroke="black" d="M90.08,-575.7C90.08,-567.98 90.08,-558.71 90.08,-550.11"/>
<polygon fill="black" stroke="black" points="93.58,-550.1 90.08,-540.1 86.58,-550.1 93.58,-550.1"/>
</g>
<!-- end -->
<g id="node3" class="node">
<title>end</title>
<text text-anchor="middle" x="77.08" y="-14.3" font-family="Helvetica,sans-Serif" font-size="14.00">end</text>
</g>
<!-- not_empty&#45;&gt;end -->
<g id="edge2" class="edge">
<title>not_empty&#45;&gt;end</title>
<path fill="none" stroke="black" d="M76.71,-506.67C67.85,-496.52 56.51,-482.23 49.08,-468 29.87,-431.25 21.08,-420.47 21.08,-379 21.08,-379 21.08,-379 21.08,-161 21.08,-117.91 43.67,-72.26 60.16,-44.7"/>
<polygon fill="none" stroke="black" points="63.21,-46.42 65.47,-36.07 57.25,-42.75 63.21,-46.42"/>
</g>
<!-- table_open -->
<g id="node4" class="node">
<title>table_open</title>
<polygon fill="none" stroke="black" points="150.08,-468 58.25,-450 150.08,-432 241.91,-450 150.08,-468"/>
<text text-anchor="middle" x="150.08" y="-446.3" font-family="Helvetica,sans-Serif" font-size="14.00">table_open?</text>
</g>
<!-- not_empty&#45;&gt;table_open -->
<g id="edge3" class="edge">
<title>not_empty&#45;&gt;table_open</title>
<path fill="none" stroke="black" d="M102.8,-506.15C110.92,-496.69 121.59,-484.24 130.74,-473.56"/>
<polygon fill="none" stroke="black" points="133.52,-475.69 137.37,-465.82 128.21,-471.14 133.52,-475.69"/>
</g>
<!-- open -->
<g id="node5" class="node">
<title>open</title>
<polygon fill="none" stroke="black" stroke-width="2" points="164.08,-396 110.08,-396 110.08,-360 164.08,-360 164.08,-396"/>
<text text-anchor="middle" x="137.08" y="-374.3" font-family="Helvetica,sans-Serif" font-size="14.00">open</text>
</g>
<!-- table_open&#45;&gt;open -->
<g id="edge4" class="edge">
<title>table_open&#45;&gt;open</title>
<path fill="none" stroke="black" d="M147,-432.41C145.55,-424.62 143.79,-415.14 142.15,-406.33"/>
<polygon fill="none" stroke="black" points="145.58,-405.64 140.32,-396.45 138.7,-406.92 145.58,-405.64"/>
</g>
<!-- pread_data -->
<g id="node6" class="node">
<title>pread_data</title>
<ellipse fill="none" stroke="black" cx="147.08" cy="-162" rx="61.19" ry="18"/>
<text text-anchor="middle" x="147.08" y="-158.3" font-family="Helvetica,sans-Serif" font-size="14.00">pread_data</text>
</g>
<!-- table_open&#45;&gt;pread_data -->
<g id="edge5" class="edge">
<title>table_open&#45;&gt;pread_data</title>
<path fill="none" stroke="black" d="M158.52,-433.49C178.14,-395.31 222.91,-294.21 193.08,-216 188.96,-205.19 181.56,-195.11 173.9,-186.71"/>
<polygon fill="none" stroke="black" points="176.35,-184.2 166.86,-179.48 171.33,-189.09 176.35,-184.2"/>
</g>
<!-- pread_footer -->
<g id="node8" class="node">
<title>pread_footer</title>
<ellipse fill="none" stroke="black" cx="117.08" cy="-306" rx="67.69" ry="18"/>
<text text-anchor="middle" x="117.08" y="-302.3" font-family="Helvetica,sans-Serif" font-size="14.00">pread_footer</text>
</g>
<!-- open&#45;&gt;pread_footer -->
<g id="edge9" class="edge">
<title>open&#45;&gt;pread_footer</title>
<path fill="none" stroke="black" d="M132.13,-359.7C129.91,-351.9 127.22,-342.51 124.74,-333.83"/>
<polygon fill="black" stroke="black" points="128.08,-332.76 121.96,-324.1 121.35,-334.68 128.08,-332.76"/>
</g>
<!-- has_more -->
<g id="node7" class="node">
<title>has_more</title>
<polygon fill="none" stroke="black" points="147.08,-108 63.29,-90 147.08,-72 230.86,-90 147.08,-108"/>
<text text-anchor="middle" x="147.08" y="-86.3" font-family="Helvetica,sans-Serif" font-size="14.00">has_more?</text>
</g>
<!-- pread_data&#45;&gt;has_more -->
<g id="edge6" class="edge">
<title>pread_data&#45;&gt;has_more</title>
<path fill="none" stroke="black" stroke-dasharray="5,2" d="M147.08,-143.7C147.08,-135.98 147.08,-126.71 147.08,-118.11"/>
<polygon fill="black" stroke="black" points="150.58,-118.1 147.08,-108.1 143.58,-118.1 150.58,-118.1"/>
</g>
<!-- has_more&#45;&gt;end -->
<g id="edge7" class="edge">
<title>has_more&#45;&gt;end</title>
<path fill="none" stroke="black" d="M132.91,-74.83C123.91,-65.83 112.02,-53.94 101.52,-43.45"/>
<polygon fill="none" stroke="black" points="103.74,-40.71 94.19,-36.11 98.79,-45.66 103.74,-40.71"/>
</g>
<!-- has_more&#45;&gt;table_open -->
<g id="edge8" class="edge">
<title>has_more:e&#45;&gt;table_open:e</title>
<path fill="none" stroke="black" d="M240.07,-90.47C292.23,-97.06 251.08,-171.77 251.08,-233 251.08,-307 251.08,-307 251.08,-307 251.08,-366.93 300.4,-440.76 253.07,-449.2"/>
<ellipse fill="none" stroke="black" cx="236.07" cy="-90.23" rx="4" ry="4"/>
<polygon fill="none" stroke="black" points="252.77,-445.72 243.08,-450 253.32,-452.69 252.77,-445.72"/>
</g>
<!-- pread_index -->
<g id="node9" class="node">
<title>pread_index</title>
<ellipse fill="none" stroke="black" cx="118.08" cy="-234" rx="65.79" ry="18"/>
<text text-anchor="middle" x="118.08" y="-230.3" font-family="Helvetica,sans-Serif" font-size="14.00">pread_index</text>
</g>
<!-- pread_footer&#45;&gt;pread_index -->
<g id="edge10" class="edge">
<title>pread_footer&#45;&gt;pread_index</title>
<path fill="none" stroke="black" d="M117.32,-287.7C117.43,-279.98 117.57,-270.71 117.69,-262.11"/>
<polygon fill="black" stroke="black" points="121.19,-262.15 117.83,-252.1 114.19,-262.05 121.19,-262.15"/>
</g>
<!-- pread_index&#45;&gt;pread_data -->
<g id="edge11" class="edge">
<title>pread_index&#45;&gt;pread_data</title>
<path fill="none" stroke="black" d="M125.1,-216.05C128.36,-208.18 132.32,-198.62 135.98,-189.79"/>
<polygon fill="black" stroke="black" points="139.33,-190.85 139.92,-180.28 132.86,-188.17 139.33,-190.85"/>
</g>
</g>
</svg>
