<?xml version="1.0" encoding="UTF-8" standalone="no"?>
<!DOCTYPE svg PUBLIC "-//W3C//DTD SVG 1.1//EN"
 "http://www.w3.org/Graphics/SVG/1.1/DTD/svg11.dtd">
<!-- Generated by graphviz version 2.43.0 (0)
 -->
<!-- Title: SCGraph Pages: 1 -->
<svg width="361pt" height="1124pt"
 viewBox="0.00 0.00 360.88 1124.00" xmlns="http://www.w3.org/2000/svg" xmlns:xlink="http://www.w3.org/1999/xlink">
<g id="graph0" class="graph" transform="scale(1 1) rotate(0) translate(4 1120)">
<title>SCGraph</title>
<polygon fill="white" stroke="transparent" points="-4,4 -4,-1120 356.88,-1120 356.88,4 -4,4"/>
<!-- start -->
<g id="node1" class="node">
<title>start</title>
<text text-anchor="middle" x="240.74" y="-1094.3" font-family="Helvetica,sans-Serif" font-size="14.00">start</text>
</g>
<!-- fstatat_src -->
<g id="node2" class="node">
<title>fstatat_src</title>
<ellipse fill="none" stroke="black" cx="240.74" cy="-1026" rx="57.69" ry="18"/>
<text text-anchor="middle" x="240.74" y="-1022.3" font-family="Helvetica,sans-Serif" font-size="14.00">fstatat_src</text>
</g>
<!-- start&#45;&gt;fstatat_src -->
<g id="edge1" class="edge">
<title>start&#45;&gt;fstatat_src</title>
<path fill="none" stroke="black" d="M240.74,-1079.7C240.74,-1071.98 240.74,-1062.71 240.74,-1054.11"/>
<polygon fill="black" stroke="black" points="244.24,-1054.1 240.74,-1044.1 237.24,-1054.1 244.24,-1054.1"/>
</g>
<!-- do_fstatat_dst -->
<g id="node4" class="node">
<title>do_fstatat_dst</title>
<polygon fill="none" stroke="black" points="240.74,-972 128.47,-954 240.74,-936 353.02,-954 240.74,-972"/>
<text text-anchor="middle" x="240.74" y="-950.3" font-family="Helvetica,sans-Serif" font-size="14.00">do_fstatat_dst?</text>
</g>
<!-- fstatat_src&#45;&gt;do_fstatat_dst -->
<g id="edge2" class="edge">
<title>fstatat_src&#45;&gt;do_fstatat_dst</title>
<path fill="none" stroke="black" stroke-dasharray="5,2" d="M240.74,-1007.7C240.74,-999.98 240.74,-990.71 240.74,-982.11"/>
<polygon fill="black" stroke="black" points="244.24,-982.1 240.74,-972.1 237.24,-982.1 244.24,-982.1"/>
</g>
<!-- end -->
<g id="node3" class="node">
<title>end</title>
<text text-anchor="middle" x="82.74" y="-14.3" font-family="Helvetica,sans-Serif" font-size="14.00">end</text>
</g>
<!-- fstatat_dst -->
<g id="node5" class="node">
<title>fstatat_dst</title>
<ellipse fill="none" stroke="black" cx="197.74" cy="-882" rx="58.49" ry="18"/>
<text text-anchor="middle" x="197.74" y="-878.3" font-family="Helvetica,sans-Serif" font-size="14.00">fstatat_dst</text>
</g>
<!-- do_fstatat_dst&#45;&gt;fstatat_dst -->
<g id="edge3" class="edge">
<title>do_fstatat_dst&#45;&gt;fstatat_dst</title>
<path fill="none" stroke="black" d="M231.2,-937.46C225.97,-928.95 219.36,-918.19 213.4,-908.48"/>
<polygon fill="none" stroke="black" points="216.38,-906.65 208.16,-899.96 210.41,-910.31 216.38,-906.65"/>
</g>
<!-- open_src -->
<g id="node6" class="node">
<title>open_src</title>
<polygon fill="none" stroke="black" stroke-width="2" points="254.74,-684 176.74,-684 176.74,-648 254.74,-648 254.74,-684"/>
<text text-anchor="middle" x="215.74" y="-662.3" font-family="Helvetica,sans-Serif" font-size="14.00">open_src</text>
</g>
<!-- do_fstatat_dst&#45;&gt;open_src -->
<g id="edge4" class="edge">
<title>do_fstatat_dst&#45;&gt;open_src</title>
<path fill="none" stroke="black" d="M253.19,-937.83C283.32,-899.16 354.59,-794.67 310.74,-720 300.48,-702.53 282.13,-690.39 264.28,-682.19"/>
<polygon fill="none" stroke="black" points="265.6,-678.95 255.03,-678.25 262.86,-685.39 265.6,-678.95"/>
</g>
<!-- do_fstatat_dst_extra -->
<g id="node17" class="node">
<title>do_fstatat_dst_extra</title>
<polygon fill="none" stroke="black" points="150.74,-828 -0.24,-810 150.74,-792 301.73,-810 150.74,-828"/>
<text text-anchor="middle" x="150.74" y="-806.3" font-family="Helvetica,sans-Serif" font-size="14.00">do_fstatat_dst_extra?</text>
</g>
<!-- fstatat_dst&#45;&gt;do_fstatat_dst_extra -->
<g id="edge17" class="edge">
<title>fstatat_dst&#45;&gt;do_fstatat_dst_extra</title>
<path fill="none" stroke="black" d="M186.36,-864.05C180.54,-855.38 173.35,-844.67 166.95,-835.15"/>
<polygon fill="black" stroke="black" points="169.85,-833.18 161.37,-826.83 164.04,-837.08 169.85,-833.18"/>
</g>
<!-- fstat_src -->
<g id="node7" class="node">
<title>fstat_src</title>
<ellipse fill="none" stroke="black" cx="215.74" cy="-594" rx="48.99" ry="18"/>
<text text-anchor="middle" x="215.74" y="-590.3" font-family="Helvetica,sans-Serif" font-size="14.00">fstat_src</text>
</g>
<!-- open_src&#45;&gt;fstat_src -->
<g id="edge5" class="edge">
<title>open_src&#45;&gt;fstat_src</title>
<path fill="none" stroke="black" d="M215.74,-647.7C215.74,-639.98 215.74,-630.71 215.74,-622.11"/>
<polygon fill="black" stroke="black" points="219.24,-622.1 215.74,-612.1 212.24,-622.1 219.24,-622.1"/>
</g>
<!-- openat_dst -->
<g id="node8" class="node">
<title>openat_dst</title>
<polygon fill="none" stroke="black" stroke-width="2" points="262.24,-540 169.24,-540 169.24,-504 262.24,-504 262.24,-540"/>
<text text-anchor="middle" x="215.74" y="-518.3" font-family="Helvetica,sans-Serif" font-size="14.00">openat_dst</text>
</g>
<!-- fstat_src&#45;&gt;openat_dst -->
<g id="edge6" class="edge">
<title>fstat_src&#45;&gt;openat_dst</title>
<path fill="none" stroke="black" d="M215.74,-575.7C215.74,-567.98 215.74,-558.71 215.74,-550.11"/>
<polygon fill="black" stroke="black" points="219.24,-550.1 215.74,-540.1 212.24,-550.1 219.24,-550.1"/>
</g>
<!-- fstat_dst -->
<g id="node9" class="node">
<title>fstat_dst</title>
<ellipse fill="none" stroke="black" cx="215.74" cy="-450" rx="50.09" ry="18"/>
<text text-anchor="middle" x="215.74" y="-446.3" font-family="Helvetica,sans-Serif" font-size="14.00">fstat_dst</text>
</g>
<!-- openat_dst&#45;&gt;fstat_dst -->
<g id="edge7" class="edge">
<title>openat_dst&#45;&gt;fstat_dst</title>
<path fill="none" stroke="black" d="M215.74,-503.7C215.74,-495.98 215.74,-486.71 215.74,-478.11"/>
<polygon fill="black" stroke="black" points="219.24,-478.1 215.74,-468.1 212.24,-478.1 219.24,-478.1"/>
</g>
<!-- read_src -->
<g id="node10" class="node">
<title>read_src</title>
<ellipse fill="none" stroke="black" cx="215.74" cy="-378" rx="48.19" ry="18"/>
<text text-anchor="middle" x="215.74" y="-374.3" font-family="Helvetica,sans-Serif" font-size="14.00">read_src</text>
</g>
<!-- fstat_dst&#45;&gt;read_src -->
<g id="edge8" class="edge">
<title>fstat_dst&#45;&gt;read_src</title>
<path fill="none" stroke="black" d="M215.74,-431.7C215.74,-423.98 215.74,-414.71 215.74,-406.11"/>
<polygon fill="black" stroke="black" points="219.24,-406.1 215.74,-396.1 212.24,-406.1 219.24,-406.1"/>
</g>
<!-- stop_loop -->
<g id="node11" class="node">
<title>stop_loop</title>
<polygon fill="none" stroke="black" points="184.74,-324 101.79,-306 184.74,-288 267.69,-306 184.74,-324"/>
<text text-anchor="middle" x="184.74" y="-302.3" font-family="Helvetica,sans-Serif" font-size="14.00">stop_loop?</text>
</g>
<!-- read_src&#45;&gt;stop_loop -->
<g id="edge9" class="edge">
<title>read_src&#45;&gt;stop_loop</title>
<path fill="none" stroke="black" d="M208.24,-360.05C204.51,-351.65 199.94,-341.32 195.82,-332.02"/>
<polygon fill="black" stroke="black" points="199,-330.56 191.75,-322.83 192.6,-333.39 199,-330.56"/>
</g>
<!-- close_dst -->
<g id="node12" class="node">
<title>close_dst</title>
<polygon fill="none" stroke="black" stroke-width="2" points="133.74,-252 53.74,-252 53.74,-216 133.74,-216 133.74,-252"/>
<text text-anchor="middle" x="93.74" y="-230.3" font-family="Helvetica,sans-Serif" font-size="14.00">close_dst</text>
</g>
<!-- stop_loop&#45;&gt;close_dst -->
<g id="edge10" class="edge">
<title>stop_loop&#45;&gt;close_dst</title>
<path fill="none" stroke="black" d="M167.2,-291.5C155.02,-282.14 138.49,-269.42 124.19,-258.42"/>
<polygon fill="none" stroke="black" points="126.14,-255.5 116.08,-252.18 121.87,-261.05 126.14,-255.5"/>
</g>
<!-- write_dst -->
<g id="node13" class="node">
<title>write_dst</title>
<polygon fill="none" stroke="black" stroke-width="2" points="241.74,-252 161.74,-252 161.74,-216 241.74,-216 241.74,-252"/>
<text text-anchor="middle" x="201.74" y="-230.3" font-family="Helvetica,sans-Serif" font-size="14.00">write_dst</text>
</g>
<!-- stop_loop&#45;&gt;write_dst -->
<g id="edge11" class="edge">
<title>stop_loop&#45;&gt;write_dst</title>
<path fill="none" stroke="black" d="M188.68,-288.76C190.62,-280.78 193.01,-270.95 195.21,-261.89"/>
<polygon fill="none" stroke="black" points="198.62,-262.67 197.58,-252.12 191.82,-261.02 198.62,-262.67"/>
</g>
<!-- close_src -->
<g id="node15" class="node">
<title>close_src</title>
<polygon fill="none" stroke="black" stroke-width="2" points="122.24,-180 43.24,-180 43.24,-144 122.24,-144 122.24,-180"/>
<text text-anchor="middle" x="82.74" y="-158.3" font-family="Helvetica,sans-Serif" font-size="14.00">close_src</text>
</g>
<!-- close_dst&#45;&gt;close_src -->
<g id="edge14" class="edge">
<title>close_dst&#45;&gt;close_src</title>
<path fill="none" stroke="black" d="M91.02,-215.7C89.81,-207.98 88.35,-198.71 87,-190.11"/>
<polygon fill="black" stroke="black" points="90.44,-189.44 85.43,-180.1 83.52,-190.53 90.44,-189.44"/>
</g>
<!-- continue -->
<g id="node14" class="node">
<title>continue</title>
<polygon fill="none" stroke="black" points="217.74,-180 140.32,-162 217.74,-144 295.16,-162 217.74,-180"/>
<text text-anchor="middle" x="217.74" y="-158.3" font-family="Helvetica,sans-Serif" font-size="14.00">continue?</text>
</g>
<!-- write_dst&#45;&gt;continue -->
<g id="edge12" class="edge">
<title>write_dst&#45;&gt;continue</title>
<path fill="none" stroke="black" d="M205.7,-215.7C207.53,-207.67 209.75,-197.95 211.79,-189.05"/>
<polygon fill="black" stroke="black" points="215.24,-189.67 214.05,-179.14 208.41,-188.11 215.24,-189.67"/>
</g>
<!-- continue&#45;&gt;read_src -->
<g id="edge13" class="edge">
<title>continue:e&#45;&gt;read_src:e</title>
<path fill="none" stroke="black" d="M297.53,-170.28C297.59,-204.8 287.22,-336.94 272.51,-370.31"/>
<ellipse fill="none" stroke="black" cx="297.12" cy="-165.98" rx="4" ry="4"/>
<polygon fill="none" stroke="black" points="269.72,-368.18 265.74,-378 274.98,-372.81 269.72,-368.18"/>
</g>
<!-- fstatat_dst_end -->
<g id="node16" class="node">
<title>fstatat_dst_end</title>
<ellipse fill="none" stroke="black" cx="82.74" cy="-90" rx="79.89" ry="18"/>
<text text-anchor="middle" x="82.74" y="-86.3" font-family="Helvetica,sans-Serif" font-size="14.00">fstatat_dst_end</text>
</g>
<!-- close_src&#45;&gt;fstatat_dst_end -->
<g id="edge15" class="edge">
<title>close_src&#45;&gt;fstatat_dst_end</title>
<path fill="none" stroke="black" stroke-dasharray="5,2" d="M82.74,-143.7C82.74,-135.98 82.74,-126.71 82.74,-118.11"/>
<polygon fill="black" stroke="black" points="86.24,-118.1 82.74,-108.1 79.24,-118.1 86.24,-118.1"/>
</g>
<!-- fstatat_dst_end&#45;&gt;end -->
<g id="edge16" class="edge">
<title>fstatat_dst_end&#45;&gt;end</title>
<path fill="none" stroke="black" d="M82.74,-71.7C82.74,-63.98 82.74,-54.71 82.74,-46.11"/>
<polygon fill="black" stroke="black" points="86.24,-46.1 82.74,-36.1 79.24,-46.1 86.24,-46.1"/>
</g>
<!-- do_fstatat_dst_extra&#45;&gt;open_src -->
<g id="edge19" class="edge">
<title>do_fstatat_dst_extra&#45;&gt;open_src</title>
<path fill="none" stroke="black" d="M137.87,-793.38C124.33,-774.94 106.79,-743.76 120.74,-720 131,-702.53 149.35,-690.39 167.2,-682.19"/>
<polygon fill="none" stroke="black" points="168.62,-685.39 176.45,-678.25 165.88,-678.95 168.62,-685.39"/>
</g>
<!-- fstatat_dst_extra -->
<g id="node18" class="node">
<title>fstatat_dst_extra</title>
<ellipse fill="none" stroke="black" cx="215.74" cy="-738" rx="86.38" ry="18"/>
<text text-anchor="middle" x="215.74" y="-734.3" font-family="Helvetica,sans-Serif" font-size="14.00">fstatat_dst_extra</text>
</g>
<!-- do_fstatat_dst_extra&#45;&gt;fstatat_dst_extra -->
<g id="edge18" class="edge">
<title>do_fstatat_dst_extra&#45;&gt;fstatat_dst_extra</title>
<path fill="none" stroke="black" d="M165.17,-793.46C173.39,-784.61 183.88,-773.31 193.18,-763.3"/>
<polygon fill="none" stroke="black" points="195.75,-765.67 199.99,-755.96 190.62,-760.91 195.75,-765.67"/>
</g>
<!-- fstatat_dst_extra&#45;&gt;open_src -->
<g id="edge20" class="edge">
<title>fstatat_dst_extra&#45;&gt;open_src</title>
<path fill="none" stroke="black" d="M215.74,-719.7C215.74,-711.98 215.74,-702.71 215.74,-694.11"/>
<polygon fill="black" stroke="black" points="219.24,-694.1 215.74,-684.1 212.24,-694.1 219.24,-694.1"/>
</g>
</g>
</svg>
