<?xml version="1.0" encoding="UTF-8" standalone="no"?>
<!DOCTYPE svg PUBLIC "-//W3C//DTD SVG 1.1//EN"
 "http://www.w3.org/Graphics/SVG/1.1/DTD/svg11.dtd">
<!-- Generated by graphviz version 2.43.0 (0)
 -->
<!-- Title: SCGraph Pages: 1 -->
<svg width="179pt" height="260pt"
 viewBox="0.00 0.00 179.30 260.00" xmlns="http://www.w3.org/2000/svg" xmlns:xlink="http://www.w3.org/1999/xlink">
<g id="graph0" class="graph" transform="scale(1 1) rotate(0) translate(4 256)">
<title>SCGraph</title>
<polygon fill="white" stroke="transparent" points="-4,4 -4,-256 175.3,-256 175.3,4 -4,4"/>
<!-- start -->
<g id="node1" class="node">
<title>start</title>
<text text-anchor="middle" x="93.29" y="-230.3" font-family="Helvetica,sans-Serif" font-size="14.00">start</text>
</g>
<!-- fstatat -->
<g id="node2" class="node">
<title>fstatat</title>
<ellipse fill="none" stroke="black" cx="93.29" cy="-162" rx="40.09" ry="18"/>
<text text-anchor="middle" x="93.29" y="-158.3" font-family="Helvetica,sans-Serif" font-size="14.00">fstatat</text>
</g>
<!-- start&#45;&gt;fstatat -->
<g id="edge1" class="edge">
<title>start&#45;&gt;fstatat</title>
<path fill="none" stroke="black" d="M93.29,-215.7C93.29,-207.98 93.29,-198.71 93.29,-190.11"/>
<polygon fill="black" stroke="black" points="96.79,-190.1 93.29,-180.1 89.79,-190.1 96.79,-190.1"/>
</g>
<!-- next_file -->
<g id="node4" class="node">
<title>next_file</title>
<polygon fill="none" stroke="black" points="76.29,-108 0.21,-90 76.29,-72 152.37,-90 76.29,-108"/>
<text text-anchor="middle" x="76.29" y="-86.3" font-family="Helvetica,sans-Serif" font-size="14.00">next_file?</text>
</g>
<!-- fstatat&#45;&gt;next_file -->
<g id="edge2" class="edge">
<title>fstatat&#45;&gt;next_file</title>
<path fill="none" stroke="black" d="M89.17,-144.05C87.23,-136.03 84.85,-126.26 82.68,-117.3"/>
<polygon fill="black" stroke="black" points="86.01,-116.2 80.25,-107.31 79.21,-117.85 86.01,-116.2"/>
</g>
<!-- end -->
<g id="node3" class="node">
<title>end</title>
<text text-anchor="middle" x="76.29" y="-14.3" font-family="Helvetica,sans-Serif" font-size="14.00">end</text>
</g>
<!-- next_file&#45;&gt;fstatat -->
<g id="edge3" class="edge">
<title>next_file:e&#45;&gt;fstatat:e</title>
<path fill="none" stroke="black" d="M161.54,-91.93C180.15,-102.06 168.63,-148.94 145.18,-159.77"/>
<ellipse fill="none" stroke="black" cx="157.18" cy="-90.91" rx="4" ry="4"/>
<polygon fill="none" stroke="black" points="144.27,-156.38 135.29,-162 145.82,-163.21 144.27,-156.38"/>
</g>
<!-- next_file&#45;&gt;end -->
<g id="edge4" class="edge">
<title>next_file&#45;&gt;end</title>
<path fill="none" stroke="black" d="M76.29,-71.7C76.29,-63.98 76.29,-54.71 76.29,-46.11"/>
<polygon fill="none" stroke="black" points="79.79,-46.1 76.29,-36.1 72.79,-46.1 79.79,-46.1"/>
</g>
</g>
</svg>
