<?xml version="1.0" encoding="UTF-8" standalone="no"?>
<!DOCTYPE svg PUBLIC "-//W3C//DTD SVG 1.1//EN"
 "http://www.w3.org/Graphics/SVG/1.1/DTD/svg11.dtd">
<!-- Generated by graphviz version 2.43.0 (0)
 -->
<!-- Title: SCGraph Pages: 1 -->
<svg width="204pt" height="332pt"
 viewBox="0.00 0.00 203.54 332.00" xmlns="http://www.w3.org/2000/svg" xmlns:xlink="http://www.w3.org/1999/xlink">
<g id="graph0" class="graph" transform="scale(1 1) rotate(0) translate(4 328)">
<title>SCGraph</title>
<polygon fill="white" stroke="transparent" points="-4,4 -4,-328 199.54,-328 199.54,4 -4,4"/>
<!-- start -->
<g id="node1" class="node">
<title>start</title>
<text text-anchor="middle" x="113.72" y="-302.3" font-family="Helvetica,sans-Serif" font-size="14.00">start</text>
</g>
<!-- read_src -->
<g id="node2" class="node">
<title>read_src</title>
<ellipse fill="none" stroke="black" cx="113.72" cy="-234" rx="48.19" ry="18"/>
<text text-anchor="middle" x="113.72" y="-230.3" font-family="Helvetica,sans-Serif" font-size="14.00">read_src</text>
</g>
<!-- start&#45;&gt;read_src -->
<g id="edge1" class="edge">
<title>start&#45;&gt;read_src</title>
<path fill="none" stroke="black" d="M113.72,-287.7C113.72,-279.98 113.72,-270.71 113.72,-262.11"/>
<polygon fill="black" stroke="black" points="117.22,-262.1 113.72,-252.1 110.22,-262.1 117.22,-262.1"/>
</g>
<!-- stop_loop -->
<g id="node4" class="node">
<title>stop_loop</title>
<polygon fill="none" stroke="black" points="82.72,-180 -0.22,-162 82.72,-144 165.67,-162 82.72,-180"/>
<text text-anchor="middle" x="82.72" y="-158.3" font-family="Helvetica,sans-Serif" font-size="14.00">stop_loop?</text>
</g>
<!-- read_src&#45;&gt;stop_loop -->
<g id="edge2" class="edge">
<title>read_src&#45;&gt;stop_loop</title>
<path fill="none" stroke="black" d="M106.22,-216.05C102.5,-207.65 97.92,-197.32 93.81,-188.02"/>
<polygon fill="black" stroke="black" points="96.98,-186.56 89.73,-178.83 90.58,-189.39 96.98,-186.56"/>
</g>
<!-- end -->
<g id="node3" class="node">
<title>end</title>
<text text-anchor="middle" x="30.72" y="-86.3" font-family="Helvetica,sans-Serif" font-size="14.00">end</text>
</g>
<!-- stop_loop&#45;&gt;end -->
<g id="edge3" class="edge">
<title>stop_loop&#45;&gt;end</title>
<path fill="none" stroke="black" d="M71.7,-146.15C65.22,-137.44 56.87,-126.19 49.39,-116.13"/>
<polygon fill="none" stroke="black" points="52.16,-113.98 43.38,-108.04 46.54,-118.15 52.16,-113.98"/>
</g>
<!-- write_dst -->
<g id="node5" class="node">
<title>write_dst</title>
<polygon fill="none" stroke="black" stroke-width="2" points="155.72,-108 75.72,-108 75.72,-72 155.72,-72 155.72,-108"/>
<text text-anchor="middle" x="115.72" y="-86.3" font-family="Helvetica,sans-Serif" font-size="14.00">write_dst</text>
</g>
<!-- stop_loop&#45;&gt;write_dst -->
<g id="edge4" class="edge">
<title>stop_loop&#45;&gt;write_dst</title>
<path fill="none" stroke="black" d="M90.05,-145.46C93.88,-137.33 98.68,-127.15 103.09,-117.79"/>
<polygon fill="none" stroke="black" points="106.39,-119 107.49,-108.46 100.06,-116.01 106.39,-119"/>
</g>
<!-- continue -->
<g id="node6" class="node">
<title>continue</title>
<polygon fill="none" stroke="black" points="115.72,-36 38.31,-18 115.72,0 193.14,-18 115.72,-36"/>
<text text-anchor="middle" x="115.72" y="-14.3" font-family="Helvetica,sans-Serif" font-size="14.00">continue?</text>
</g>
<!-- write_dst&#45;&gt;continue -->
<g id="edge5" class="edge">
<title>write_dst&#45;&gt;continue</title>
<path fill="none" stroke="black" d="M115.72,-71.7C115.72,-63.98 115.72,-54.71 115.72,-46.11"/>
<polygon fill="black" stroke="black" points="119.22,-46.1 115.72,-36.1 112.22,-46.1 119.22,-46.1"/>
</g>
<!-- continue&#45;&gt;read_src -->
<g id="edge6" class="edge">
<title>continue:e&#45;&gt;read_src:e</title>
<path fill="none" stroke="black" d="M195.51,-26.28C195.57,-60.8 185.21,-192.94 170.49,-226.31"/>
<ellipse fill="none" stroke="black" cx="195.1" cy="-21.98" rx="4" ry="4"/>
<polygon fill="none" stroke="black" points="167.7,-224.18 163.72,-234 172.96,-228.81 167.7,-224.18"/>
</g>
</g>
</svg>
