<?xml version="1.0" encoding="UTF-8" standalone="no"?>
<!DOCTYPE svg PUBLIC "-//W3C//DTD SVG 1.1//EN"
 "http://www.w3.org/Graphics/SVG/1.1/DTD/svg11.dtd">
<!-- Generated by graphviz version 2.43.0 (0)
 -->
<!-- Title: SCGraph Pages: 1 -->
<svg width="228pt" height="260pt"
 viewBox="0.00 0.00 228.27 260.00" xmlns="http://www.w3.org/2000/svg" xmlns:xlink="http://www.w3.org/1999/xlink">
<g id="graph0" class="graph" transform="scale(1 1) rotate(0) translate(4 256)">
<title>SCGraph</title>
<polygon fill="white" stroke="transparent" points="-4,4 -4,-256 224.27,-256 224.27,4 -4,4"/>
<!-- start -->
<g id="node1" class="node">
<title>start</title>
<text text-anchor="middle" x="122.11" y="-230.3" font-family="Helvetica,sans-Serif" font-size="14.00">start</text>
</g>
<!-- pread_leaf -->
<g id="node2" class="node">
<title>pread_leaf</title>
<ellipse fill="none" stroke="black" cx="122.11" cy="-162" rx="57.69" ry="18"/>
<text text-anchor="middle" x="122.11" y="-158.3" font-family="Helvetica,sans-Serif" font-size="14.00">pread_leaf</text>
</g>
<!-- start&#45;&gt;pread_leaf -->
<g id="edge1" class="edge">
<title>start&#45;&gt;pread_leaf</title>
<path fill="none" stroke="black" d="M122.11,-215.7C122.11,-207.98 122.11,-198.71 122.11,-190.11"/>
<polygon fill="black" stroke="black" points="125.61,-190.1 122.11,-180.1 118.61,-190.1 125.61,-190.1"/>
</g>
<!-- branch_next -->
<g id="node4" class="node">
<title>branch_next</title>
<polygon fill="none" stroke="black" points="101.11,-108 -0.11,-90 101.11,-72 202.32,-90 101.11,-108"/>
<text text-anchor="middle" x="101.11" y="-86.3" font-family="Helvetica,sans-Serif" font-size="14.00">branch_next?</text>
</g>
<!-- pread_leaf&#45;&gt;branch_next -->
<g id="edge2" class="edge">
<title>pread_leaf&#45;&gt;branch_next</title>
<path fill="none" stroke="black" d="M117.02,-144.05C114.59,-135.94 111.62,-126.04 108.91,-117.01"/>
<polygon fill="black" stroke="black" points="112.23,-115.88 106,-107.31 105.52,-117.89 112.23,-115.88"/>
</g>
<!-- end -->
<g id="node3" class="node">
<title>end</title>
<text text-anchor="middle" x="101.11" y="-14.3" font-family="Helvetica,sans-Serif" font-size="14.00">end</text>
</g>
<!-- branch_next&#45;&gt;pread_leaf -->
<g id="edge3" class="edge">
<title>branch_next:e&#45;&gt;pread_leaf:e</title>
<path fill="none" stroke="black" d="M211.41,-91.95C229.8,-102.16 215.45,-149.41 190.9,-159.92"/>
<ellipse fill="none" stroke="black" cx="207" cy="-90.91" rx="4" ry="4"/>
<polygon fill="none" stroke="black" points="190.16,-156.5 181.11,-162 191.62,-163.35 190.16,-156.5"/>
</g>
<!-- branch_next&#45;&gt;end -->
<g id="edge4" class="edge">
<title>branch_next&#45;&gt;end</title>
<path fill="none" stroke="black" d="M101.11,-71.7C101.11,-63.98 101.11,-54.71 101.11,-46.11"/>
<polygon fill="none" stroke="black" points="104.61,-46.1 101.11,-36.1 97.61,-46.1 104.61,-46.1"/>
</g>
</g>
</svg>
