<?xml version="1.0" encoding="UTF-8" standalone="no"?>
<!DOCTYPE svg PUBLIC "-//W3C//DTD SVG 1.1//EN"
 "http://www.w3.org/Graphics/SVG/1.1/DTD/svg11.dtd">
<!-- Generated by graphviz version 2.43.0 (0)
 -->
<!-- Title: SCGraph Pages: 1 -->
<svg width="227pt" height="260pt"
 viewBox="0.00 0.00 227.16 260.00" xmlns="http://www.w3.org/2000/svg" xmlns:xlink="http://www.w3.org/1999/xlink">
<g id="graph0" class="graph" transform="scale(1 1) rotate(0) translate(4 256)">
<title>SCGraph</title>
<polygon fill="white" stroke="transparent" points="-4,4 -4,-256 223.16,-256 223.16,4 -4,4"/>
<!-- start -->
<g id="node1" class="node">
<title>start</title>
<text text-anchor="middle" x="128.11" y="-230.3" font-family="Helvetica,sans-Serif" font-size="14.00">start</text>
</g>
<!-- pwrite_leaf -->
<g id="node2" class="node">
<title>pwrite_leaf</title>
<polygon fill="none" stroke="black" stroke-width="2" points="174.11,-180 82.11,-180 82.11,-144 174.11,-144 174.11,-180"/>
<text text-anchor="middle" x="128.11" y="-158.3" font-family="Helvetica,sans-Serif" font-size="14.00">pwrite_leaf</text>
</g>
<!-- start&#45;&gt;pwrite_leaf -->
<g id="edge1" class="edge">
<title>start&#45;&gt;pwrite_leaf</title>
<path fill="none" stroke="black" d="M128.11,-215.7C128.11,-207.98 128.11,-198.71 128.11,-190.11"/>
<polygon fill="black" stroke="black" points="131.61,-190.1 128.11,-180.1 124.61,-190.1 131.61,-190.1"/>
</g>
<!-- branch_next -->
<g id="node4" class="node">
<title>branch_next</title>
<polygon fill="none" stroke="black" points="101.11,-108 -0.11,-90 101.11,-72 202.32,-90 101.11,-108"/>
<text text-anchor="middle" x="101.11" y="-86.3" font-family="Helvetica,sans-Serif" font-size="14.00">branch_next?</text>
</g>
<!-- pwrite_leaf&#45;&gt;branch_next -->
<g id="edge2" class="edge">
<title>pwrite_leaf&#45;&gt;branch_next</title>
<path fill="none" stroke="black" d="M121.43,-143.7C118.27,-135.49 114.42,-125.52 110.93,-116.48"/>
<polygon fill="black" stroke="black" points="114.2,-115.22 107.33,-107.14 107.67,-117.73 114.2,-115.22"/>
</g>
<!-- end -->
<g id="node3" class="node">
<title>end</title>
<text text-anchor="middle" x="101.11" y="-14.3" font-family="Helvetica,sans-Serif" font-size="14.00">end</text>
</g>
<!-- branch_next&#45;&gt;pwrite_leaf -->
<g id="edge3" class="edge">
<title>branch_next:e&#45;&gt;pwrite_leaf:e</title>
<path fill="none" stroke="black" d="M211.02,-91.7C229.97,-101.42 211.33,-149.79 184.93,-160.07"/>
<ellipse fill="none" stroke="black" cx="207.02" cy="-90.84" rx="4" ry="4"/>
<polygon fill="none" stroke="black" points="184.25,-156.64 175.11,-162 185.59,-163.51 184.25,-156.64"/>
</g>
<!-- branch_next&#45;&gt;end -->
<g id="edge4" class="edge">
<title>branch_next&#45;&gt;end</title>
<path fill="none" stroke="black" d="M101.11,-71.7C101.11,-63.98 101.11,-54.71 101.11,-46.11"/>
<polygon fill="none" stroke="black" points="104.61,-46.1 101.11,-36.1 97.61,-46.1 104.61,-46.1"/>
</g>
</g>
</svg>
