<?xml version="1.0" encoding="UTF-8" standalone="no"?>
<!DOCTYPE svg PUBLIC "-//W3C//DTD SVG 1.1//EN"
 "http://www.w3.org/Graphics/SVG/1.1/DTD/svg11.dtd">
<!-- Generated by graphviz version 2.43.0 (0)
 -->
<!-- Title: SCGraph Pages: 1 -->
<svg width="279pt" height="908pt"
 viewBox="0.00 0.00 279.01 908.00" xmlns="http://www.w3.org/2000/svg" xmlns:xlink="http://www.w3.org/1999/xlink">
<g id="graph0" class="graph" transform="scale(1 1) rotate(0) translate(4 904)">
<title>SCGraph</title>
<polygon fill="white" stroke="transparent" points="-4,4 -4,-904 275.01,-904 275.01,4 -4,4"/>
<!-- start -->
<g id="node1" class="node">
<title>start</title>
<text text-anchor="middle" x="179.25" y="-878.3" font-family="Helvetica,sans-Serif" font-size="14.00">start</text>
</g>
<!-- branch0 -->
<g id="node2" class="node">
<title>branch0</title>
<polygon fill="none" stroke="black" points="179.25,-828 104,-810 179.25,-792 254.49,-810 179.25,-828"/>
<text text-anchor="middle" x="179.25" y="-806.3" font-family="Helvetica,sans-Serif" font-size="14.00">branch0?</text>
</g>
<!-- start&#45;&gt;branch0 -->
<g id="edge1" class="edge">
<title>start&#45;&gt;branch0</title>
<path fill="none" stroke="black" d="M179.25,-863.7C179.25,-855.98 179.25,-846.71 179.25,-838.11"/>
<polygon fill="black" stroke="black" points="182.75,-838.1 179.25,-828.1 175.75,-838.1 182.75,-838.1"/>
</g>
<!-- open -->
<g id="node4" class="node">
<title>open</title>
<polygon fill="none" stroke="black" stroke-width="2" points="179.25,-756 125.25,-756 125.25,-720 179.25,-720 179.25,-756"/>
<text text-anchor="middle" x="152.25" y="-734.3" font-family="Helvetica,sans-Serif" font-size="14.00">open</text>
</g>
<!-- branch0&#45;&gt;open -->
<g id="edge2" class="edge">
<title>branch0&#45;&gt;open</title>
<path fill="none" stroke="black" d="M173.12,-793.12C170.01,-785.06 166.15,-775.05 162.6,-765.84"/>
<polygon fill="none" stroke="black" points="165.78,-764.36 158.92,-756.29 159.25,-766.88 165.78,-764.36"/>
</g>
<!-- pwrite1 -->
<g id="node5" class="node">
<title>pwrite1</title>
<polygon fill="none" stroke="black" stroke-width="2" points="257.75,-684 188.75,-684 188.75,-648 257.75,-648 257.75,-684"/>
<text text-anchor="middle" x="223.25" y="-662.3" font-family="Helvetica,sans-Serif" font-size="14.00">pwrite1</text>
</g>
<!-- branch0&#45;&gt;pwrite1 -->
<g id="edge3" class="edge">
<title>branch0&#45;&gt;pwrite1</title>
<path fill="none" stroke="black" d="M184.21,-792.99C191.69,-768.85 205.93,-722.87 214.99,-693.63"/>
<polygon fill="none" stroke="black" points="218.34,-694.64 217.96,-684.06 211.66,-692.57 218.34,-694.64"/>
</g>
<!-- end -->
<g id="node3" class="node">
<title>end</title>
<text text-anchor="middle" x="162.25" y="-14.3" font-family="Helvetica,sans-Serif" font-size="14.00">end</text>
</g>
<!-- pwrite0 -->
<g id="node17" class="node">
<title>pwrite0</title>
<polygon fill="none" stroke="black" stroke-width="2" points="170.75,-684 101.75,-684 101.75,-648 170.75,-648 170.75,-684"/>
<text text-anchor="middle" x="136.25" y="-662.3" font-family="Helvetica,sans-Serif" font-size="14.00">pwrite0</text>
</g>
<!-- open&#45;&gt;pwrite0 -->
<g id="edge20" class="edge">
<title>open&#45;&gt;pwrite0</title>
<path fill="none" stroke="black" d="M148.29,-719.7C146.53,-711.98 144.41,-702.71 142.44,-694.11"/>
<polygon fill="black" stroke="black" points="145.8,-693.07 140.16,-684.1 138.97,-694.63 145.8,-693.07"/>
</g>
<!-- pwrite2 -->
<g id="node6" class="node">
<title>pwrite2</title>
<polygon fill="none" stroke="black" stroke-width="2" points="213.75,-612 144.75,-612 144.75,-576 213.75,-576 213.75,-612"/>
<text text-anchor="middle" x="179.25" y="-590.3" font-family="Helvetica,sans-Serif" font-size="14.00">pwrite2</text>
</g>
<!-- pwrite1&#45;&gt;pwrite2 -->
<g id="edge4" class="edge">
<title>pwrite1&#45;&gt;pwrite2</title>
<path fill="none" stroke="black" d="M212.37,-647.7C207.25,-639.56 201.05,-629.69 195.4,-620.7"/>
<polygon fill="black" stroke="black" points="198.28,-618.71 190,-612.1 192.36,-622.43 198.28,-618.71"/>
</g>
<!-- branch1 -->
<g id="node7" class="node">
<title>branch1</title>
<polygon fill="none" stroke="black" points="179.25,-540 104,-522 179.25,-504 254.49,-522 179.25,-540"/>
<text text-anchor="middle" x="179.25" y="-518.3" font-family="Helvetica,sans-Serif" font-size="14.00">branch1?</text>
</g>
<!-- pwrite2&#45;&gt;branch1 -->
<g id="edge5" class="edge">
<title>pwrite2&#45;&gt;branch1</title>
<path fill="none" stroke="black" d="M179.25,-575.7C179.25,-567.98 179.25,-558.71 179.25,-550.11"/>
<polygon fill="black" stroke="black" points="182.75,-550.1 179.25,-540.1 175.75,-550.1 182.75,-550.1"/>
</g>
<!-- pread0 -->
<g id="node8" class="node">
<title>pread0</title>
<ellipse fill="none" stroke="black" cx="42.25" cy="-450" rx="42.49" ry="18"/>
<text text-anchor="middle" x="42.25" y="-446.3" font-family="Helvetica,sans-Serif" font-size="14.00">pread0</text>
</g>
<!-- branch1&#45;&gt;pread0 -->
<g id="edge6" class="edge">
<title>branch1&#45;&gt;pread0</title>
<path fill="none" stroke="black" d="M156.32,-509.28C134.84,-498.31 102.42,-481.74 77.62,-469.08"/>
<polygon fill="none" stroke="black" points="79.03,-465.86 68.53,-464.43 75.85,-472.1 79.03,-465.86"/>
</g>
<!-- branch2 -->
<g id="node9" class="node">
<title>branch2</title>
<polygon fill="none" stroke="black" points="179.25,-468 104,-450 179.25,-432 254.49,-450 179.25,-468"/>
<text text-anchor="middle" x="179.25" y="-446.3" font-family="Helvetica,sans-Serif" font-size="14.00">branch2?</text>
</g>
<!-- branch1&#45;&gt;branch2 -->
<g id="edge7" class="edge">
<title>branch1&#45;&gt;branch2</title>
<path fill="none" stroke="black" d="M179.25,-503.7C179.25,-495.98 179.25,-486.71 179.25,-478.11"/>
<polygon fill="none" stroke="black" points="182.75,-478.1 179.25,-468.1 175.75,-478.1 182.75,-478.1"/>
</g>
<!-- branch3 -->
<g id="node10" class="node">
<title>branch3</title>
<polygon fill="none" stroke="black" points="162.25,-252 87,-234 162.25,-216 237.49,-234 162.25,-252"/>
<text text-anchor="middle" x="162.25" y="-230.3" font-family="Helvetica,sans-Serif" font-size="14.00">branch3?</text>
</g>
<!-- branch1&#45;&gt;branch3 -->
<g id="edge8" class="edge">
<title>branch1&#45;&gt;branch3</title>
<path fill="none" stroke="black" d="M208.92,-510.83C228.11,-502.54 251.61,-488.76 263.25,-468 271.97,-452.43 274.34,-304.62 264.25,-288 251.89,-267.66 228.92,-254.77 207.9,-246.8"/>
<polygon fill="none" stroke="black" points="209.02,-243.49 198.42,-243.48 206.7,-250.09 209.02,-243.49"/>
</g>
<!-- pread0&#45;&gt;branch3 -->
<g id="edge19" class="edge">
<title>pread0&#45;&gt;branch3</title>
<path fill="none" stroke="black" d="M39.26,-431.7C34.79,-400.11 29.85,-332.29 60.25,-288 73.86,-268.17 97.27,-255.26 118.23,-247.15"/>
<polygon fill="black" stroke="black" points="119.42,-250.44 127.64,-243.76 117.05,-243.86 119.42,-250.44"/>
</g>
<!-- pread1 -->
<g id="node13" class="node">
<title>pread1</title>
<ellipse fill="none" stroke="black" cx="111.25" cy="-378" rx="42.49" ry="18"/>
<text text-anchor="middle" x="111.25" y="-374.3" font-family="Helvetica,sans-Serif" font-size="14.00">pread1</text>
</g>
<!-- branch2&#45;&gt;pread1 -->
<g id="edge13" class="edge">
<title>branch2&#45;&gt;pread1</title>
<path fill="none" stroke="black" d="M165.81,-435.17C156.75,-425.85 144.58,-413.31 134.03,-402.45"/>
<polygon fill="none" stroke="black" points="136.52,-399.99 127.04,-395.26 131.5,-404.87 136.52,-399.99"/>
</g>
<!-- pread3 -->
<g id="node14" class="node">
<title>pread3</title>
<ellipse fill="none" stroke="black" cx="213.25" cy="-378" rx="42.49" ry="18"/>
<text text-anchor="middle" x="213.25" y="-374.3" font-family="Helvetica,sans-Serif" font-size="14.00">pread3</text>
</g>
<!-- branch2&#45;&gt;pread3 -->
<g id="edge14" class="edge">
<title>branch2&#45;&gt;pread3</title>
<path fill="none" stroke="black" d="M186.79,-433.46C190.84,-425.13 195.94,-414.63 200.58,-405.08"/>
<polygon fill="none" stroke="black" points="203.79,-406.49 205.01,-395.96 197.49,-403.43 203.79,-406.49"/>
</g>
<!-- pwrite3 -->
<g id="node11" class="node">
<title>pwrite3</title>
<polygon fill="none" stroke="black" stroke-width="2" points="165.75,-180 96.75,-180 96.75,-144 165.75,-144 165.75,-180"/>
<text text-anchor="middle" x="131.25" y="-158.3" font-family="Helvetica,sans-Serif" font-size="14.00">pwrite3</text>
</g>
<!-- branch3&#45;&gt;pwrite3 -->
<g id="edge9" class="edge">
<title>branch3&#45;&gt;pwrite3</title>
<path fill="none" stroke="black" d="M155.37,-217.46C151.77,-209.33 147.25,-199.15 143.11,-189.79"/>
<polygon fill="none" stroke="black" points="146.23,-188.19 138.98,-180.46 139.83,-191.02 146.23,-188.19"/>
</g>
<!-- close -->
<g id="node12" class="node">
<title>close</title>
<polygon fill="none" stroke="black" stroke-width="2" points="189.25,-108 135.25,-108 135.25,-72 189.25,-72 189.25,-108"/>
<text text-anchor="middle" x="162.25" y="-86.3" font-family="Helvetica,sans-Serif" font-size="14.00">close</text>
</g>
<!-- branch3&#45;&gt;close -->
<g id="edge10" class="edge">
<title>branch3&#45;&gt;close</title>
<path fill="none" stroke="black" d="M167.25,-216.95C170.23,-206.53 173.72,-192.6 175.25,-180 177.17,-164.12 177.17,-159.88 175.25,-144 174.22,-135.53 172.31,-126.47 170.27,-118.28"/>
<polygon fill="none" stroke="black" points="173.61,-117.23 167.66,-108.47 166.85,-119.03 173.61,-117.23"/>
</g>
<!-- pwrite3&#45;&gt;close -->
<g id="edge12" class="edge">
<title>pwrite3&#45;&gt;close</title>
<path fill="none" stroke="black" d="M138.91,-143.7C142.44,-135.73 146.7,-126.1 150.61,-117.26"/>
<polygon fill="black" stroke="black" points="153.82,-118.67 154.67,-108.1 147.42,-115.83 153.82,-118.67"/>
</g>
<!-- close&#45;&gt;end -->
<g id="edge11" class="edge">
<title>close&#45;&gt;end</title>
<path fill="none" stroke="black" d="M162.25,-71.7C162.25,-63.98 162.25,-54.71 162.25,-46.11"/>
<polygon fill="black" stroke="black" points="165.75,-46.1 162.25,-36.1 158.75,-46.1 165.75,-46.1"/>
</g>
<!-- pread2 -->
<g id="node16" class="node">
<title>pread2</title>
<ellipse fill="none" stroke="black" cx="111.25" cy="-306" rx="42.49" ry="18"/>
<text text-anchor="middle" x="111.25" y="-302.3" font-family="Helvetica,sans-Serif" font-size="14.00">pread2</text>
</g>
<!-- pread1&#45;&gt;pread2 -->
<g id="edge17" class="edge">
<title>pread1&#45;&gt;pread2</title>
<path fill="none" stroke="black" d="M111.25,-359.7C111.25,-351.98 111.25,-342.71 111.25,-334.11"/>
<polygon fill="black" stroke="black" points="114.75,-334.1 111.25,-324.1 107.75,-334.1 114.75,-334.1"/>
</g>
<!-- pread4 -->
<g id="node15" class="node">
<title>pread4</title>
<ellipse fill="none" stroke="black" cx="213.25" cy="-306" rx="42.49" ry="18"/>
<text text-anchor="middle" x="213.25" y="-302.3" font-family="Helvetica,sans-Serif" font-size="14.00">pread4</text>
</g>
<!-- pread3&#45;&gt;pread4 -->
<g id="edge15" class="edge">
<title>pread3&#45;&gt;pread4</title>
<path fill="none" stroke="black" d="M213.25,-359.7C213.25,-351.98 213.25,-342.71 213.25,-334.11"/>
<polygon fill="black" stroke="black" points="216.75,-334.1 213.25,-324.1 209.75,-334.1 216.75,-334.1"/>
</g>
<!-- pread4&#45;&gt;branch3 -->
<g id="edge16" class="edge">
<title>pread4&#45;&gt;branch3</title>
<path fill="none" stroke="black" d="M201.16,-288.41C194.51,-279.28 186.15,-267.81 178.89,-257.85"/>
<polygon fill="black" stroke="black" points="181.58,-255.59 172.86,-249.57 175.92,-259.71 181.58,-255.59"/>
</g>
<!-- pread2&#45;&gt;branch3 -->
<g id="edge18" class="edge">
<title>pread2&#45;&gt;branch3</title>
<path fill="none" stroke="black" d="M123.33,-288.41C129.98,-279.28 138.34,-267.81 145.6,-257.85"/>
<polygon fill="black" stroke="black" points="148.57,-259.71 151.63,-249.57 142.91,-255.59 148.57,-259.71"/>
</g>
<!-- pwrite0&#45;&gt;pwrite2 -->
<g id="edge21" class="edge">
<title>pwrite0&#45;&gt;pwrite2</title>
<path fill="none" stroke="black" d="M146.88,-647.7C151.87,-639.56 157.94,-629.69 163.46,-620.7"/>
<polygon fill="black" stroke="black" points="166.49,-622.46 168.74,-612.1 160.52,-618.79 166.49,-622.46"/>
</g>
</g>
</svg>
