<?xml version="1.0" encoding="UTF-8" standalone="no"?>
<!DOCTYPE svg PUBLIC "-//W3C//DTD SVG 1.1//EN"
 "http://www.w3.org/Graphics/SVG/1.1/DTD/svg11.dtd">
<!-- Generated by graphviz version 2.43.0 (0)
 -->
<!-- Title: SCGraph Pages: 1 -->
<svg width="278pt" height="476pt"
 viewBox="0.00 0.00 278.36 476.00" xmlns="http://www.w3.org/2000/svg" xmlns:xlink="http://www.w3.org/1999/xlink">
<g id="graph0" class="graph" transform="scale(1 1) rotate(0) translate(4 472)">
<title>SCGraph</title>
<polygon fill="white" stroke="transparent" points="-4,4 -4,-472 274.36,-472 274.36,4 -4,4"/>
<!-- start -->
<g id="node1" class="node">
<title>start</title>
<text text-anchor="middle" x="130.64" y="-446.3" font-family="Helvetica,sans-Serif" font-size="14.00">start</text>
</g>
<!-- table_open -->
<g id="node2" class="node">
<title>table_open</title>
<polygon fill="none" stroke="black" points="130.64,-396 38.81,-378 130.64,-360 222.48,-378 130.64,-396"/>
<text text-anchor="middle" x="130.64" y="-374.3" font-family="Helvetica,sans-Serif" font-size="14.00">table_open?</text>
</g>
<!-- start&#45;&gt;table_open -->
<g id="edge1" class="edge">
<title>start&#45;&gt;table_open</title>
<path fill="none" stroke="black" d="M130.64,-431.7C130.64,-423.98 130.64,-414.71 130.64,-406.11"/>
<polygon fill="black" stroke="black" points="134.14,-406.1 130.64,-396.1 127.14,-406.1 134.14,-406.1"/>
</g>
<!-- open -->
<g id="node4" class="node">
<title>open</title>
<polygon fill="none" stroke="black" stroke-width="2" points="112.64,-324 58.64,-324 58.64,-288 112.64,-288 112.64,-324"/>
<text text-anchor="middle" x="85.64" y="-302.3" font-family="Helvetica,sans-Serif" font-size="14.00">open</text>
</g>
<!-- table_open&#45;&gt;open -->
<g id="edge2" class="edge">
<title>table_open&#45;&gt;open</title>
<path fill="none" stroke="black" d="M120.88,-361.81C115.42,-353.31 108.46,-342.49 102.18,-332.72"/>
<polygon fill="none" stroke="black" points="105.01,-330.65 96.65,-324.13 99.12,-334.43 105.01,-330.65"/>
</g>
<!-- pread_data -->
<g id="node5" class="node">
<title>pread_data</title>
<ellipse fill="none" stroke="black" cx="133.64" cy="-162" rx="61.19" ry="18"/>
<text text-anchor="middle" x="133.64" y="-158.3" font-family="Helvetica,sans-Serif" font-size="14.00">pread_data</text>
</g>
<!-- table_open&#45;&gt;pread_data -->
<g id="edge3" class="edge">
<title>table_open&#45;&gt;pread_data</title>
<path fill="none" stroke="black" d="M133.12,-360.08C137.09,-330.74 144.1,-268.54 140.64,-216 140.09,-207.53 139.04,-198.36 137.91,-190.06"/>
<polygon fill="none" stroke="black" points="141.37,-189.53 136.49,-180.13 134.45,-190.53 141.37,-189.53"/>
</g>
<!-- end -->
<g id="node3" class="node">
<title>end</title>
<text text-anchor="middle" x="135.64" y="-14.3" font-family="Helvetica,sans-Serif" font-size="14.00">end</text>
</g>
<!-- pread_index -->
<g id="node7" class="node">
<title>pread_index</title>
<ellipse fill="none" stroke="black" cx="65.64" cy="-234" rx="65.79" ry="18"/>
<text text-anchor="middle" x="65.64" y="-230.3" font-family="Helvetica,sans-Serif" font-size="14.00">pread_index</text>
</g>
<!-- open&#45;&gt;pread_index -->
<g id="edge7" class="edge">
<title>open&#45;&gt;pread_index</title>
<path fill="none" stroke="black" d="M80.7,-287.7C78.47,-279.9 75.79,-270.51 73.31,-261.83"/>
<polygon fill="black" stroke="black" points="76.64,-260.76 70.53,-252.1 69.91,-262.68 76.64,-260.76"/>
</g>
<!-- has_more -->
<g id="node6" class="node">
<title>has_more</title>
<polygon fill="none" stroke="black" points="135.64,-108 51.86,-90 135.64,-72 219.43,-90 135.64,-108"/>
<text text-anchor="middle" x="135.64" y="-86.3" font-family="Helvetica,sans-Serif" font-size="14.00">has_more?</text>
</g>
<!-- pread_data&#45;&gt;has_more -->
<g id="edge4" class="edge">
<title>pread_data&#45;&gt;has_more</title>
<path fill="none" stroke="black" stroke-dasharray="5,2" d="M134.14,-143.7C134.36,-135.98 134.62,-126.71 134.87,-118.11"/>
<polygon fill="black" stroke="black" points="138.37,-118.2 135.16,-108.1 131.37,-118 138.37,-118.2"/>
</g>
<!-- has_more&#45;&gt;table_open -->
<g id="edge5" class="edge">
<title>has_more:e&#45;&gt;table_open:e</title>
<path fill="none" stroke="black" d="M228.79,-91.65C281.58,-113.62 284.62,-348.68 233.54,-375.51"/>
<ellipse fill="none" stroke="black" cx="224.56" cy="-90.79" rx="4" ry="4"/>
<polygon fill="none" stroke="black" points="232.49,-372.17 223.64,-378 234.2,-378.96 232.49,-372.17"/>
</g>
<!-- has_more&#45;&gt;end -->
<g id="edge6" class="edge">
<title>has_more&#45;&gt;end</title>
<path fill="none" stroke="black" d="M135.64,-71.7C135.64,-63.98 135.64,-54.71 135.64,-46.11"/>
<polygon fill="none" stroke="black" points="139.14,-46.1 135.64,-36.1 132.14,-46.1 139.14,-46.1"/>
</g>
<!-- pread_index&#45;&gt;pread_data -->
<g id="edge8" class="edge">
<title>pread_index&#45;&gt;pread_data</title>
<path fill="none" stroke="black" d="M81.76,-216.41C90.31,-207.61 100.98,-196.63 110.41,-186.92"/>
<polygon fill="black" stroke="black" points="113.19,-189.08 117.64,-179.47 108.17,-184.2 113.19,-189.08"/>
</g>
</g>
</svg>
