<?xml version="1.0" encoding="UTF-8" standalone="no"?>
<!DOCTYPE svg PUBLIC "-//W3C//DTD SVG 1.1//EN"
 "http://www.w3.org/Graphics/SVG/1.1/DTD/svg11.dtd">
<!-- Generated by graphviz version 2.43.0 (0)
 -->
<!-- Title: SCGraph Pages: 1 -->
<svg width="209pt" height="692pt"
 viewBox="0.00 0.00 208.68 692.00" xmlns="http://www.w3.org/2000/svg" xmlns:xlink="http://www.w3.org/1999/xlink">
<g id="graph0" class="graph" transform="scale(1 1) rotate(0) translate(4 688)">
<title>SCGraph</title>
<polygon fill="white" stroke="transparent" points="-4,4 -4,-688 204.68,-688 204.68,4 -4,4"/>
<!-- start -->
<g id="node1" class="node">
<title>start</title>
<text text-anchor="middle" x="125.37" y="-662.3" font-family="Helvetica,sans-Serif" font-size="14.00">start</text>
</g>
<!-- open -->
<g id="node2" class="node">
<title>open</title>
<polygon fill="none" stroke="black" stroke-width="2" points="152.37,-612 98.37,-612 98.37,-576 152.37,-576 152.37,-612"/>
<text text-anchor="middle" x="125.37" y="-590.3" font-family="Helvetica,sans-Serif" font-size="14.00">open</text>
</g>
<!-- start&#45;&gt;open -->
<g id="edge1" class="edge">
<title>start&#45;&gt;open</title>
<path fill="none" stroke="black" d="M125.37,-647.7C125.37,-639.98 125.37,-630.71 125.37,-622.11"/>
<polygon fill="black" stroke="black" points="128.87,-622.1 125.37,-612.1 121.87,-622.1 128.87,-622.1"/>
</g>
<!-- pwrite -->
<g id="node4" class="node">
<title>pwrite</title>
<polygon fill="none" stroke="black" stroke-width="2" points="155.37,-540 95.37,-540 95.37,-504 155.37,-504 155.37,-540"/>
<text text-anchor="middle" x="125.37" y="-518.3" font-family="Helvetica,sans-Serif" font-size="14.00">pwrite</text>
</g>
<!-- open&#45;&gt;pwrite -->
<g id="edge2" class="edge">
<title>open&#45;&gt;pwrite</title>
<path fill="none" stroke="black" d="M125.37,-575.7C125.37,-567.98 125.37,-558.71 125.37,-550.11"/>
<polygon fill="black" stroke="black" points="128.87,-550.1 125.37,-540.1 121.87,-550.1 128.87,-550.1"/>
</g>
<!-- end -->
<g id="node3" class="node">
<title>end</title>
<text text-anchor="middle" x="91.37" y="-14.3" font-family="Helvetica,sans-Serif" font-size="14.00">end</text>
</g>
<!-- branch0 -->
<g id="node5" class="node">
<title>branch0</title>
<polygon fill="none" stroke="black" points="80.37,-468 5.13,-450 80.37,-432 155.61,-450 80.37,-468"/>
<text text-anchor="middle" x="80.37" y="-446.3" font-family="Helvetica,sans-Serif" font-size="14.00">branch0?</text>
</g>
<!-- pwrite&#45;&gt;branch0 -->
<g id="edge3" class="edge">
<title>pwrite&#45;&gt;branch0</title>
<path fill="none" stroke="black" d="M114.25,-503.7C108.57,-494.86 101.57,-483.98 95.42,-474.41"/>
<polygon fill="black" stroke="black" points="98.2,-472.26 89.85,-465.74 92.31,-476.04 98.2,-472.26"/>
</g>
<!-- branch0&#45;&gt;pwrite -->
<g id="edge5" class="edge">
<title>branch0:e&#45;&gt;pwrite:e</title>
<path fill="none" stroke="black" d="M162.96,-455.19C169.88,-467.93 170.16,-500.74 163.8,-515.1"/>
<ellipse fill="none" stroke="black" cx="159.51" cy="-452.47" rx="4" ry="4"/>
<polygon fill="none" stroke="black" points="161.31,-512.63 156.37,-522 166.08,-517.76 161.31,-512.63"/>
</g>
<!-- pread0 -->
<g id="node6" class="node">
<title>pread0</title>
<ellipse fill="none" stroke="black" cx="80.37" cy="-378" rx="42.49" ry="18"/>
<text text-anchor="middle" x="80.37" y="-374.3" font-family="Helvetica,sans-Serif" font-size="14.00">pread0</text>
</g>
<!-- branch0&#45;&gt;pread0 -->
<g id="edge4" class="edge">
<title>branch0&#45;&gt;pread0</title>
<path fill="none" stroke="black" d="M80.37,-431.7C80.37,-423.98 80.37,-414.71 80.37,-406.11"/>
<polygon fill="none" stroke="black" points="83.87,-406.1 80.37,-396.1 76.87,-406.1 83.87,-406.1"/>
</g>
<!-- pread1 -->
<g id="node7" class="node">
<title>pread1</title>
<ellipse fill="none" stroke="black" cx="75.37" cy="-306" rx="42.49" ry="18"/>
<text text-anchor="middle" x="75.37" y="-302.3" font-family="Helvetica,sans-Serif" font-size="14.00">pread1</text>
</g>
<!-- pread0&#45;&gt;pread1 -->
<g id="edge6" class="edge">
<title>pread0&#45;&gt;pread1</title>
<path fill="none" stroke="black" d="M79.13,-359.7C78.58,-351.98 77.92,-342.71 77.31,-334.11"/>
<polygon fill="black" stroke="black" points="80.8,-333.83 76.59,-324.1 73.81,-334.33 80.8,-333.83"/>
</g>
<!-- branch1 -->
<g id="node8" class="node">
<title>branch1</title>
<polygon fill="none" stroke="black" points="75.37,-252 0.13,-234 75.37,-216 150.61,-234 75.37,-252"/>
<text text-anchor="middle" x="75.37" y="-230.3" font-family="Helvetica,sans-Serif" font-size="14.00">branch1?</text>
</g>
<!-- pread1&#45;&gt;branch1 -->
<g id="edge7" class="edge">
<title>pread1&#45;&gt;branch1</title>
<path fill="none" stroke="black" d="M75.37,-287.7C75.37,-279.98 75.37,-270.71 75.37,-262.11"/>
<polygon fill="black" stroke="black" points="78.87,-262.1 75.37,-252.1 71.87,-262.1 78.87,-262.1"/>
</g>
<!-- branch1&#45;&gt;pread0 -->
<g id="edge9" class="edge">
<title>branch1:e&#45;&gt;pread0:e</title>
<path fill="none" stroke="black" d="M158.86,-237.41C176.78,-256.84 158.8,-353.57 133.7,-374.15"/>
<ellipse fill="none" stroke="black" cx="155.01" cy="-235.66" rx="4" ry="4"/>
<polygon fill="none" stroke="black" points="132.28,-370.95 124.37,-378 134.95,-377.42 132.28,-370.95"/>
</g>
<!-- branch2 -->
<g id="node9" class="node">
<title>branch2</title>
<polygon fill="none" stroke="black" points="91.37,-180 16.13,-162 91.37,-144 166.61,-162 91.37,-180"/>
<text text-anchor="middle" x="91.37" y="-158.3" font-family="Helvetica,sans-Serif" font-size="14.00">branch2?</text>
</g>
<!-- branch1&#45;&gt;branch2 -->
<g id="edge8" class="edge">
<title>branch1&#45;&gt;branch2</title>
<path fill="none" stroke="black" d="M79.08,-216.76C80.96,-208.55 83.29,-198.37 85.41,-189.09"/>
<polygon fill="none" stroke="black" points="88.86,-189.68 87.68,-179.15 82.04,-188.12 88.86,-189.68"/>
</g>
<!-- branch2&#45;&gt;pwrite -->
<g id="edge11" class="edge">
<title>branch2:e&#45;&gt;pwrite:e</title>
<path fill="none" stroke="black" d="M175.64,-162.51C226.93,-169.38 183.37,-244.05 183.37,-305 183.37,-379 183.37,-379 183.37,-379 183.37,-440.02 216.9,-513.17 166.4,-521.26"/>
<ellipse fill="none" stroke="black" cx="171.36" cy="-162.25" rx="4" ry="4"/>
<polygon fill="none" stroke="black" points="166.09,-517.78 156.37,-522 166.6,-524.76 166.09,-517.78"/>
</g>
<!-- close -->
<g id="node10" class="node">
<title>close</title>
<polygon fill="none" stroke="black" stroke-width="2" points="118.37,-108 64.37,-108 64.37,-72 118.37,-72 118.37,-108"/>
<text text-anchor="middle" x="91.37" y="-86.3" font-family="Helvetica,sans-Serif" font-size="14.00">close</text>
</g>
<!-- branch2&#45;&gt;close -->
<g id="edge10" class="edge">
<title>branch2&#45;&gt;close</title>
<path fill="none" stroke="black" d="M91.37,-143.7C91.37,-135.98 91.37,-126.71 91.37,-118.11"/>
<polygon fill="none" stroke="black" points="94.87,-118.1 91.37,-108.1 87.87,-118.1 94.87,-118.1"/>
</g>
<!-- close&#45;&gt;end -->
<g id="edge12" class="edge">
<title>close&#45;&gt;end</title>
<path fill="none" stroke="black" d="M91.37,-71.7C91.37,-63.98 91.37,-54.71 91.37,-46.11"/>
<polygon fill="black" stroke="black" points="94.87,-46.1 91.37,-36.1 87.87,-46.1 94.87,-46.1"/>
</g>
</g>
</svg>
