<?xml version="1.0" encoding="UTF-8" standalone="no"?>
<!DOCTYPE svg PUBLIC "-//W3C//DTD SVG 1.1//EN"
 "http://www.w3.org/Graphics/SVG/1.1/DTD/svg11.dtd">
<!-- Generated by graphviz version 2.43.0 (0)
 -->
<!-- Title: SCGraph Pages: 1 -->
<svg width="162pt" height="260pt"
 viewBox="0.00 0.00 161.76 260.00" xmlns="http://www.w3.org/2000/svg" xmlns:xlink="http://www.w3.org/1999/xlink">
<g id="graph0" class="graph" transform="scale(1 1) rotate(0) translate(4 256)">
<title>SCGraph</title>
<polygon fill="white" stroke="transparent" points="-4,4 -4,-256 157.76,-256 157.76,4 -4,4"/>
<!-- start -->
<g id="node1" class="node">
<title>start</title>
<text text-anchor="middle" x="82.1" y="-230.3" font-family="Helvetica,sans-Serif" font-size="14.00">start</text>
</g>
<!-- pread -->
<g id="node2" class="node">
<title>pread</title>
<ellipse fill="none" stroke="black" cx="82.1" cy="-162" rx="36.29" ry="18"/>
<text text-anchor="middle" x="82.1" y="-158.3" font-family="Helvetica,sans-Serif" font-size="14.00">pread</text>
</g>
<!-- start&#45;&gt;pread -->
<g id="edge1" class="edge">
<title>start&#45;&gt;pread</title>
<path fill="none" stroke="black" d="M82.1,-215.7C82.1,-207.98 82.1,-198.71 82.1,-190.11"/>
<polygon fill="black" stroke="black" points="85.6,-190.1 82.1,-180.1 78.6,-190.1 85.6,-190.1"/>
</g>
<!-- branch -->
<g id="node4" class="node">
<title>branch</title>
<polygon fill="none" stroke="black" points="67.1,-108 -0.1,-90 67.1,-72 134.3,-90 67.1,-108"/>
<text text-anchor="middle" x="67.1" y="-86.3" font-family="Helvetica,sans-Serif" font-size="14.00">branch?</text>
</g>
<!-- pread&#45;&gt;branch -->
<g id="edge2" class="edge">
<title>pread&#45;&gt;branch</title>
<path fill="none" stroke="black" d="M78.47,-144.05C76.75,-136.03 74.65,-126.26 72.73,-117.3"/>
<polygon fill="black" stroke="black" points="76.11,-116.35 70.59,-107.31 69.27,-117.82 76.11,-116.35"/>
</g>
<!-- end -->
<g id="node3" class="node">
<title>end</title>
<text text-anchor="middle" x="67.1" y="-14.3" font-family="Helvetica,sans-Serif" font-size="14.00">end</text>
</g>
<!-- branch&#45;&gt;pread -->
<g id="edge3" class="edge">
<title>branch:e&#45;&gt;pread:e</title>
<path fill="none" stroke="black" d="M143.07,-91.79C162.19,-101.55 152.82,-148.43 130.15,-159.6"/>
<ellipse fill="none" stroke="black" cx="139" cy="-90.87" rx="4" ry="4"/>
<polygon fill="none" stroke="black" points="129.01,-156.28 120.1,-162 130.64,-163.09 129.01,-156.28"/>
</g>
<!-- branch&#45;&gt;end -->
<g id="edge4" class="edge">
<title>branch&#45;&gt;end</title>
<path fill="none" stroke="black" d="M67.1,-71.7C67.1,-63.98 67.1,-54.71 67.1,-46.11"/>
<polygon fill="none" stroke="black" points="70.6,-46.1 67.1,-36.1 63.6,-46.1 70.6,-46.1"/>
</g>
</g>
</svg>
