<?xml version="1.0" encoding="UTF-8" standalone="no"?>
<!DOCTYPE svg PUBLIC "-//W3C//DTD SVG 1.1//EN"
 "http://www.w3.org/Graphics/SVG/1.1/DTD/svg11.dtd">
<!-- Generated by graphviz version 2.43.0 (0)
 -->
<!-- Title: SCGraph Pages: 1 -->
<svg width="92pt" height="476pt"
 viewBox="0.00 0.00 92.49 476.00" xmlns="http://www.w3.org/2000/svg" xmlns:xlink="http://www.w3.org/1999/xlink">
<g id="graph0" class="graph" transform="scale(1 1) rotate(0) translate(4 472)">
<title>SCGraph</title>
<polygon fill="white" stroke="transparent" points="-4,4 -4,-472 88.49,-472 88.49,4 -4,4"/>
<!-- start -->
<g id="node1" class="node">
<title>start</title>
<text text-anchor="middle" x="42.25" y="-446.3" font-family="Helvetica,sans-Serif" font-size="14.00">start</text>
</g>
<!-- open -->
<g id="node2" class="node">
<title>open</title>
<polygon fill="none" stroke="black" stroke-width="2" points="69.25,-396 15.25,-396 15.25,-360 69.25,-360 69.25,-396"/>
<text text-anchor="middle" x="42.25" y="-374.3" font-family="Helvetica,sans-Serif" font-size="14.00">open</text>
</g>
<!-- start&#45;&gt;open -->
<g id="edge1" class="edge">
<title>start&#45;&gt;open</title>
<path fill="none" stroke="black" d="M42.25,-431.7C42.25,-423.98 42.25,-414.71 42.25,-406.11"/>
<polygon fill="black" stroke="black" points="45.75,-406.1 42.25,-396.1 38.75,-406.1 45.75,-406.1"/>
</g>
<!-- pwrite -->
<g id="node4" class="node">
<title>pwrite</title>
<polygon fill="none" stroke="black" stroke-width="2" points="72.25,-324 12.25,-324 12.25,-288 72.25,-288 72.25,-324"/>
<text text-anchor="middle" x="42.25" y="-302.3" font-family="Helvetica,sans-Serif" font-size="14.00">pwrite</text>
</g>
<!-- open&#45;&gt;pwrite -->
<g id="edge2" class="edge">
<title>open&#45;&gt;pwrite</title>
<path fill="none" stroke="black" d="M42.25,-359.7C42.25,-351.98 42.25,-342.71 42.25,-334.11"/>
<polygon fill="black" stroke="black" points="45.75,-334.1 42.25,-324.1 38.75,-334.1 45.75,-334.1"/>
</g>
<!-- end -->
<g id="node3" class="node">
<title>end</title>
<text text-anchor="middle" x="42.25" y="-14.3" font-family="Helvetica,sans-Serif" font-size="14.00">end</text>
</g>
<!-- pread0 -->
<g id="node5" class="node">
<title>pread0</title>
<ellipse fill="none" stroke="black" cx="42.25" cy="-234" rx="42.49" ry="18"/>
<text text-anchor="middle" x="42.25" y="-230.3" font-family="Helvetica,sans-Serif" font-size="14.00">pread0</text>
</g>
<!-- pwrite&#45;&gt;pread0 -->
<g id="edge3" class="edge">
<title>pwrite&#45;&gt;pread0</title>
<path fill="none" stroke="black" d="M42.25,-287.7C42.25,-279.98 42.25,-270.71 42.25,-262.11"/>
<polygon fill="black" stroke="black" points="45.75,-262.1 42.25,-252.1 38.75,-262.1 45.75,-262.1"/>
</g>
<!-- pread1 -->
<g id="node6" class="node">
<title>pread1</title>
<ellipse fill="none" stroke="black" cx="42.25" cy="-162" rx="42.49" ry="18"/>
<text text-anchor="middle" x="42.25" y="-158.3" font-family="Helvetica,sans-Serif" font-size="14.00">pread1</text>
</g>
<!-- pread0&#45;&gt;pread1 -->
<g id="edge4" class="edge">
<title>pread0&#45;&gt;pread1</title>
<path fill="none" stroke="black" d="M42.25,-215.7C42.25,-207.98 42.25,-198.71 42.25,-190.11"/>
<polygon fill="black" stroke="black" points="45.75,-190.1 42.25,-180.1 38.75,-190.1 45.75,-190.1"/>
</g>
<!-- close -->
<g id="node7" class="node">
<title>close</title>
<polygon fill="none" stroke="black" stroke-width="2" points="69.25,-108 15.25,-108 15.25,-72 69.25,-72 69.25,-108"/>
<text text-anchor="middle" x="42.25" y="-86.3" font-family="Helvetica,sans-Serif" font-size="14.00">close</text>
</g>
<!-- pread1&#45;&gt;close -->
<g id="edge5" class="edge">
<title>pread1&#45;&gt;close</title>
<path fill="none" stroke="black" d="M42.25,-143.7C42.25,-135.98 42.25,-126.71 42.25,-118.11"/>
<polygon fill="black" stroke="black" points="45.75,-118.1 42.25,-108.1 38.75,-118.1 45.75,-118.1"/>
</g>
<!-- close&#45;&gt;end -->
<g id="edge6" class="edge">
<title>close&#45;&gt;end</title>
<path fill="none" stroke="black" d="M42.25,-71.7C42.25,-63.98 42.25,-54.71 42.25,-46.11"/>
<polygon fill="black" stroke="black" points="45.75,-46.1 42.25,-36.1 38.75,-46.1 45.75,-46.1"/>
</g>
</g>
</svg>
