<?xml version="1.0" encoding="UTF-8" standalone="no"?>
<!DOCTYPE svg PUBLIC "-//W3C//DTD SVG 1.1//EN"
 "http://www.w3.org/Graphics/SVG/1.1/DTD/svg11.dtd">
<!-- Generated by graphviz version 2.43.0 (0)
 -->
<!-- Title: SCGraph Pages: 1 -->
<svg width="89pt" height="404pt"
 viewBox="0.00 0.00 88.59 404.00" xmlns="http://www.w3.org/2000/svg" xmlns:xlink="http://www.w3.org/1999/xlink">
<g id="graph0" class="graph" transform="scale(1 1) rotate(0) translate(4 400)">
<title>SCGraph</title>
<polygon fill="white" stroke="transparent" points="-4,4 -4,-400 84.59,-400 84.59,4 -4,4"/>
<!-- start -->
<g id="node1" class="node">
<title>start</title>
<text text-anchor="middle" x="40.3" y="-374.3" font-family="Helvetica,sans-Serif" font-size="14.00">start</text>
</g>
<!-- openat -->
<g id="node2" class="node">
<title>openat</title>
<polygon fill="none" stroke="black" stroke-width="2" points="72.8,-324 7.8,-324 7.8,-288 72.8,-288 72.8,-324"/>
<text text-anchor="middle" x="40.3" y="-302.3" font-family="Helvetica,sans-Serif" font-size="14.00">openat</text>
</g>
<!-- start&#45;&gt;openat -->
<g id="edge1" class="edge">
<title>start&#45;&gt;openat</title>
<path fill="none" stroke="black" d="M40.3,-359.7C40.3,-351.98 40.3,-342.71 40.3,-334.11"/>
<polygon fill="black" stroke="black" points="43.8,-334.1 40.3,-324.1 36.8,-334.1 43.8,-334.1"/>
</g>
<!-- fstat -->
<g id="node4" class="node">
<title>fstat</title>
<ellipse fill="none" stroke="black" cx="40.3" cy="-234" rx="31.4" ry="18"/>
<text text-anchor="middle" x="40.3" y="-230.3" font-family="Helvetica,sans-Serif" font-size="14.00">fstat</text>
</g>
<!-- openat&#45;&gt;fstat -->
<g id="edge2" class="edge">
<title>openat&#45;&gt;fstat</title>
<path fill="none" stroke="black" d="M40.3,-287.7C40.3,-279.98 40.3,-270.71 40.3,-262.11"/>
<polygon fill="black" stroke="black" points="43.8,-262.1 40.3,-252.1 36.8,-262.1 43.8,-262.1"/>
</g>
<!-- end -->
<g id="node3" class="node">
<title>end</title>
<text text-anchor="middle" x="40.3" y="-14.3" font-family="Helvetica,sans-Serif" font-size="14.00">end</text>
</g>
<!-- fstatat -->
<g id="node5" class="node">
<title>fstatat</title>
<ellipse fill="none" stroke="black" cx="40.3" cy="-162" rx="40.09" ry="18"/>
<text text-anchor="middle" x="40.3" y="-158.3" font-family="Helvetica,sans-Serif" font-size="14.00">fstatat</text>
</g>
<!-- fstat&#45;&gt;fstatat -->
<g id="edge3" class="edge">
<title>fstat&#45;&gt;fstatat</title>
<path fill="none" stroke="black" d="M40.3,-215.7C40.3,-207.98 40.3,-198.71 40.3,-190.11"/>
<polygon fill="black" stroke="black" points="43.8,-190.1 40.3,-180.1 36.8,-190.1 43.8,-190.1"/>
</g>
<!-- close -->
<g id="node6" class="node">
<title>close</title>
<polygon fill="none" stroke="black" stroke-width="2" points="67.3,-108 13.3,-108 13.3,-72 67.3,-72 67.3,-108"/>
<text text-anchor="middle" x="40.3" y="-86.3" font-family="Helvetica,sans-Serif" font-size="14.00">close</text>
</g>
<!-- fstatat&#45;&gt;close -->
<g id="edge4" class="edge">
<title>fstatat&#45;&gt;close</title>
<path fill="none" stroke="black" d="M40.3,-143.7C40.3,-135.98 40.3,-126.71 40.3,-118.11"/>
<polygon fill="black" stroke="black" points="43.8,-118.1 40.3,-108.1 36.8,-118.1 43.8,-118.1"/>
</g>
<!-- close&#45;&gt;end -->
<g id="edge5" class="edge">
<title>close&#45;&gt;end</title>
<path fill="none" stroke="black" d="M40.3,-71.7C40.3,-63.98 40.3,-54.71 40.3,-46.11"/>
<polygon fill="black" stroke="black" points="43.8,-46.1 40.3,-36.1 36.8,-46.1 43.8,-46.1"/>
</g>
</g>
</svg>
