<?xml version="1.0" encoding="UTF-8" standalone="no"?>
<!DOCTYPE svg PUBLIC "-//W3C//DTD SVG 1.1//EN"
 "http://www.w3.org/Graphics/SVG/1.1/DTD/svg11.dtd">
<!-- Generated by graphviz version 2.43.0 (0)
 -->
<!-- Title: SCGraph Pages: 1 -->
<svg width="184pt" height="332pt"
 viewBox="0.00 0.00 184.35 332.00" xmlns="http://www.w3.org/2000/svg" xmlns:xlink="http://www.w3.org/1999/xlink">
<g id="graph0" class="graph" transform="scale(1 1) rotate(0) translate(4 328)">
<title>SCGraph</title>
<polygon fill="white" stroke="transparent" points="-4,4 -4,-328 180.35,-328 180.35,4 -4,4"/>
<!-- start -->
<g id="node1" class="node">
<title>start</title>
<text text-anchor="middle" x="81.1" y="-302.3" font-family="Helvetica,sans-Serif" font-size="14.00">start</text>
</g>
<!-- pread -->
<g id="node2" class="node">
<title>pread</title>
<ellipse fill="none" stroke="black" cx="81.1" cy="-234" rx="36.29" ry="18"/>
<text text-anchor="middle" x="81.1" y="-230.3" font-family="Helvetica,sans-Serif" font-size="14.00">pread</text>
</g>
<!-- start&#45;&gt;pread -->
<g id="edge1" class="edge">
<title>start&#45;&gt;pread</title>
<path fill="none" stroke="black" d="M81.1,-287.7C81.1,-279.98 81.1,-270.71 81.1,-262.11"/>
<polygon fill="black" stroke="black" points="84.6,-262.1 81.1,-252.1 77.6,-262.1 84.6,-262.1"/>
</g>
<!-- pwrite -->
<g id="node4" class="node">
<title>pwrite</title>
<polygon fill="none" stroke="black" stroke-width="2" points="99.1,-180 39.1,-180 39.1,-144 99.1,-144 99.1,-180"/>
<text text-anchor="middle" x="69.1" y="-158.3" font-family="Helvetica,sans-Serif" font-size="14.00">pwrite</text>
</g>
<!-- pread&#45;&gt;pwrite -->
<g id="edge2" class="edge">
<title>pread&#45;&gt;pwrite</title>
<path fill="none" stroke="black" d="M78.19,-216.05C76.87,-208.35 75.27,-199.03 73.79,-190.36"/>
<polygon fill="black" stroke="black" points="77.2,-189.54 72.06,-180.28 70.3,-190.72 77.2,-189.54"/>
</g>
<!-- end -->
<g id="node3" class="node">
<title>end</title>
<text text-anchor="middle" x="67.1" y="-14.3" font-family="Helvetica,sans-Serif" font-size="14.00">end</text>
</g>
<!-- branch -->
<g id="node5" class="node">
<title>branch</title>
<polygon fill="none" stroke="black" points="67.1,-108 -0.1,-90 67.1,-72 134.3,-90 67.1,-108"/>
<text text-anchor="middle" x="67.1" y="-86.3" font-family="Helvetica,sans-Serif" font-size="14.00">branch?</text>
</g>
<!-- pwrite&#45;&gt;branch -->
<g id="edge3" class="edge">
<title>pwrite&#45;&gt;branch</title>
<path fill="none" stroke="black" d="M68.6,-143.7C68.38,-135.98 68.12,-126.71 67.87,-118.11"/>
<polygon fill="black" stroke="black" points="71.37,-118 67.59,-108.1 64.37,-118.2 71.37,-118"/>
</g>
<!-- branch&#45;&gt;pread -->
<g id="edge4" class="edge">
<title>branch:e&#45;&gt;pread:e</title>
<path fill="none" stroke="black" d="M143.19,-90.82C194.84,-101.81 182.39,-219.34 129.22,-232.76"/>
<ellipse fill="none" stroke="black" cx="139.08" cy="-90.4" rx="4" ry="4"/>
<polygon fill="none" stroke="black" points="128.6,-229.31 119.1,-234 129.45,-236.25 128.6,-229.31"/>
</g>
<!-- branch&#45;&gt;end -->
<g id="edge5" class="edge">
<title>branch&#45;&gt;end</title>
<path fill="none" stroke="black" d="M67.1,-71.7C67.1,-63.98 67.1,-54.71 67.1,-46.11"/>
<polygon fill="none" stroke="black" points="70.6,-46.1 67.1,-36.1 63.6,-46.1 70.6,-46.1"/>
</g>
</g>
</svg>
