<?xml version="1.0" encoding="UTF-8" standalone="no"?>
<!DOCTYPE svg PUBLIC "-//W3C//DTD SVG 1.1//EN"
 "http://www.w3.org/Graphics/SVG/1.1/DTD/svg11.dtd">
<!-- Generated by graphviz version 2.43.0 (0)
 -->
<!-- Title: SCGraph Pages: 1 -->
<svg width="207pt" height="404pt"
 viewBox="0.00 0.00 207.41 404.00" xmlns="http://www.w3.org/2000/svg" xmlns:xlink="http://www.w3.org/1999/xlink">
<g id="graph0" class="graph" transform="scale(1 1) rotate(0) translate(4 400)">
<title>SCGraph</title>
<polygon fill="white" stroke="transparent" points="-4,4 -4,-400 203.41,-400 203.41,4 -4,4"/>
<!-- start -->
<g id="node1" class="node">
<title>start</title>
<text text-anchor="middle" x="86.1" y="-374.3" font-family="Helvetica,sans-Serif" font-size="14.00">start</text>
</g>
<!-- pwrite -->
<g id="node2" class="node">
<title>pwrite</title>
<polygon fill="none" stroke="black" stroke-width="2" points="116.1,-324 56.1,-324 56.1,-288 116.1,-288 116.1,-324"/>
<text text-anchor="middle" x="86.1" y="-302.3" font-family="Helvetica,sans-Serif" font-size="14.00">pwrite</text>
</g>
<!-- start&#45;&gt;pwrite -->
<g id="edge1" class="edge">
<title>start&#45;&gt;pwrite</title>
<path fill="none" stroke="black" d="M86.1,-359.7C86.1,-351.98 86.1,-342.71 86.1,-334.11"/>
<polygon fill="black" stroke="black" points="89.6,-334.1 86.1,-324.1 82.6,-334.1 89.6,-334.1"/>
</g>
<!-- pread0 -->
<g id="node4" class="node">
<title>pread0</title>
<ellipse fill="none" stroke="black" cx="66.1" cy="-234" rx="42.49" ry="18"/>
<text text-anchor="middle" x="66.1" y="-230.3" font-family="Helvetica,sans-Serif" font-size="14.00">pread0</text>
</g>
<!-- pwrite&#45;&gt;pread0 -->
<g id="edge2" class="edge">
<title>pwrite&#45;&gt;pread0</title>
<path fill="none" stroke="black" d="M81.15,-287.7C78.93,-279.9 76.24,-270.51 73.76,-261.83"/>
<polygon fill="black" stroke="black" points="77.1,-260.76 70.99,-252.1 70.37,-262.68 77.1,-260.76"/>
</g>
<!-- end -->
<g id="node3" class="node">
<title>end</title>
<text text-anchor="middle" x="67.1" y="-14.3" font-family="Helvetica,sans-Serif" font-size="14.00">end</text>
</g>
<!-- pread1 -->
<g id="node5" class="node">
<title>pread1</title>
<ellipse fill="none" stroke="black" cx="66.1" cy="-162" rx="42.49" ry="18"/>
<text text-anchor="middle" x="66.1" y="-158.3" font-family="Helvetica,sans-Serif" font-size="14.00">pread1</text>
</g>
<!-- pread0&#45;&gt;pread1 -->
<g id="edge3" class="edge">
<title>pread0&#45;&gt;pread1</title>
<path fill="none" stroke="black" stroke-dasharray="5,2" d="M66.1,-215.7C66.1,-207.98 66.1,-198.71 66.1,-190.11"/>
<polygon fill="black" stroke="black" points="69.6,-190.1 66.1,-180.1 62.6,-190.1 69.6,-190.1"/>
</g>
<!-- branch -->
<g id="node6" class="node">
<title>branch</title>
<polygon fill="none" stroke="black" points="67.1,-108 -0.1,-90 67.1,-72 134.3,-90 67.1,-108"/>
<text text-anchor="middle" x="67.1" y="-86.3" font-family="Helvetica,sans-Serif" font-size="14.00">branch?</text>
</g>
<!-- pread1&#45;&gt;branch -->
<g id="edge4" class="edge">
<title>pread1&#45;&gt;branch</title>
<path fill="none" stroke="black" d="M66.35,-143.7C66.46,-135.98 66.59,-126.71 66.71,-118.11"/>
<polygon fill="black" stroke="black" points="70.21,-118.15 66.85,-108.1 63.21,-118.05 70.21,-118.15"/>
</g>
<!-- branch&#45;&gt;pwrite -->
<g id="edge5" class="edge">
<title>branch:e&#45;&gt;pwrite:e</title>
<path fill="none" stroke="black" d="M143.24,-90.54C227.07,-101.98 211.94,-291.11 127.23,-305.17"/>
<ellipse fill="none" stroke="black" cx="139.09" cy="-90.27" rx="4" ry="4"/>
<polygon fill="none" stroke="black" points="126.78,-301.7 117.1,-306 127.35,-308.68 126.78,-301.7"/>
</g>
<!-- branch&#45;&gt;end -->
<g id="edge6" class="edge">
<title>branch&#45;&gt;end</title>
<path fill="none" stroke="black" d="M67.1,-71.7C67.1,-63.98 67.1,-54.71 67.1,-46.11"/>
<polygon fill="none" stroke="black" points="70.6,-46.1 67.1,-36.1 63.6,-46.1 70.6,-46.1"/>
</g>
</g>
</svg>
