<?xml version="1.0" encoding="UTF-8" standalone="no"?>
<!DOCTYPE svg PUBLIC "-//W3C//DTD SVG 1.1//EN"
 "http://www.w3.org/Graphics/SVG/1.1/DTD/svg11.dtd">
<!-- Generated by graphviz version 2.43.0 (0)
 -->
<!-- Title: SCGraph Pages: 1 -->
<svg width="161pt" height="260pt"
 viewBox="0.00 0.00 160.89 260.00" xmlns="http://www.w3.org/2000/svg" xmlns:xlink="http://www.w3.org/1999/xlink">
<g id="graph0" class="graph" transform="scale(1 1) rotate(0) translate(4 256)">
<title>SCGraph</title>
<polygon fill="white" stroke="transparent" points="-4,4 -4,-256 156.89,-256 156.89,4 -4,4"/>
<!-- start -->
<g id="node1" class="node">
<title>start</title>
<text text-anchor="middle" x="85.1" y="-230.3" font-family="Helvetica,sans-Serif" font-size="14.00">start</text>
</g>
<!-- pwrite -->
<g id="node2" class="node">
<title>pwrite</title>
<polygon fill="none" stroke="black" stroke-width="2" points="115.1,-180 55.1,-180 55.1,-144 115.1,-144 115.1,-180"/>
<text text-anchor="middle" x="85.1" y="-158.3" font-family="Helvetica,sans-Serif" font-size="14.00">pwrite</text>
</g>
<!-- start&#45;&gt;pwrite -->
<g id="edge1" class="edge">
<title>start&#45;&gt;pwrite</title>
<path fill="none" stroke="black" d="M85.1,-215.7C85.1,-207.98 85.1,-198.71 85.1,-190.11"/>
<polygon fill="black" stroke="black" points="88.6,-190.1 85.1,-180.1 81.6,-190.1 88.6,-190.1"/>
</g>
<!-- branch -->
<g id="node4" class="node">
<title>branch</title>
<polygon fill="none" stroke="black" points="67.1,-108 -0.1,-90 67.1,-72 134.3,-90 67.1,-108"/>
<text text-anchor="middle" x="67.1" y="-86.3" font-family="Helvetica,sans-Serif" font-size="14.00">branch?</text>
</g>
<!-- pwrite&#45;&gt;branch -->
<g id="edge2" class="edge">
<title>pwrite&#45;&gt;branch</title>
<path fill="none" stroke="black" d="M80.65,-143.7C78.58,-135.67 76.08,-125.95 73.8,-117.05"/>
<polygon fill="black" stroke="black" points="77.13,-115.96 71.25,-107.14 70.35,-117.7 77.13,-115.96"/>
</g>
<!-- end -->
<g id="node3" class="node">
<title>end</title>
<text text-anchor="middle" x="67.1" y="-14.3" font-family="Helvetica,sans-Serif" font-size="14.00">end</text>
</g>
<!-- branch&#45;&gt;pwrite -->
<g id="edge3" class="edge">
<title>branch:e&#45;&gt;pwrite:e</title>
<path fill="none" stroke="black" d="M143.35,-91.93C161.89,-102.06 149.72,-148.94 126.06,-159.77"/>
<ellipse fill="none" stroke="black" cx="138.99" cy="-90.91" rx="4" ry="4"/>
<polygon fill="none" stroke="black" points="125.09,-156.4 116.1,-162 126.62,-163.23 125.09,-156.4"/>
</g>
<!-- branch&#45;&gt;end -->
<g id="edge4" class="edge">
<title>branch&#45;&gt;end</title>
<path fill="none" stroke="black" d="M67.1,-71.7C67.1,-63.98 67.1,-54.71 67.1,-46.11"/>
<polygon fill="none" stroke="black" points="70.6,-46.1 67.1,-36.1 63.6,-46.1 70.6,-46.1"/>
</g>
</g>
</svg>
