<?xml version="1.0" encoding="UTF-8" standalone="no"?>
<!DOCTYPE svg PUBLIC "-//W3C//DTD SVG 1.1//EN"
 "http://www.w3.org/Graphics/SVG/1.1/DTD/svg11.dtd">
<!-- Generated by graphviz version 2.43.0 (0)
 -->
<!-- Title: SCGraph Pages: 1 -->
<svg width="282pt" height="548pt"
 viewBox="0.00 0.00 282.35 548.00" xmlns="http://www.w3.org/2000/svg" xmlns:xlink="http://www.w3.org/1999/xlink">
<g id="graph0" class="graph" transform="scale(1 1) rotate(0) translate(4 544)">
<title>SCGraph</title>
<polygon fill="white" stroke="transparent" points="-4,4 -4,-544 278.35,-544 278.35,4 -4,4"/>
<!-- start -->
<g id="node1" class="node">
<title>start</title>
<text text-anchor="middle" x="137" y="-518.3" font-family="Helvetica,sans-Serif" font-size="14.00">start</text>
</g>
<!-- table_open -->
<g id="node2" class="node">
<title>table_open</title>
<polygon fill="none" stroke="black" points="137,-468 45.17,-450 137,-432 228.83,-450 137,-468"/>
<text text-anchor="middle" x="137" y="-446.3" font-family="Helvetica,sans-Serif" font-size="14.00">table_open?</text>
</g>
<!-- start&#45;&gt;table_open -->
<g id="edge1" class="edge">
<title>start&#45;&gt;table_open</title>
<path fill="none" stroke="black" d="M137,-503.7C137,-495.98 137,-486.71 137,-478.11"/>
<polygon fill="black" stroke="black" points="140.5,-478.1 137,-468.1 133.5,-478.1 140.5,-478.1"/>
</g>
<!-- end -->
<g id="node3" class="node">
<title>end</title>
<text text-anchor="middle" x="68" y="-14.3" font-family="Helvetica,sans-Serif" font-size="14.00">end</text>
</g>
<!-- table_open&#45;&gt;end -->
<g id="edge4" class="edge">
<title>table_open&#45;&gt;end</title>
<path fill="none" stroke="black" d="M111.23,-436.91C71.55,-416.31 0,-370.37 0,-307 0,-307 0,-307 0,-161 0,-120.55 0.38,-107.91 19,-72 24.39,-61.61 32.37,-51.74 40.33,-43.41"/>
<polygon fill="none" stroke="black" points="42.94,-45.74 47.56,-36.21 38.01,-40.78 42.94,-45.74"/>
</g>
<!-- open -->
<g id="node4" class="node">
<title>open</title>
<polygon fill="none" stroke="black" stroke-width="2" points="143,-396 89,-396 89,-360 143,-360 143,-396"/>
<text text-anchor="middle" x="116" y="-374.3" font-family="Helvetica,sans-Serif" font-size="14.00">open</text>
</g>
<!-- table_open&#45;&gt;open -->
<g id="edge2" class="edge">
<title>table_open&#45;&gt;open</title>
<path fill="none" stroke="black" d="M132.13,-432.76C129.73,-424.78 126.79,-414.95 124.07,-405.89"/>
<polygon fill="none" stroke="black" points="127.36,-404.7 121.14,-396.12 120.66,-406.71 127.36,-404.7"/>
</g>
<!-- pread_data -->
<g id="node5" class="node">
<title>pread_data</title>
<ellipse fill="none" stroke="black" cx="137" cy="-162" rx="61.19" ry="18"/>
<text text-anchor="middle" x="137" y="-158.3" font-family="Helvetica,sans-Serif" font-size="14.00">pread_data</text>
</g>
<!-- table_open&#45;&gt;pread_data -->
<g id="edge3" class="edge">
<title>table_open&#45;&gt;pread_data</title>
<path fill="none" stroke="black" d="M145.28,-433.55C164.53,-395.51 208.53,-294.7 180,-216 176.14,-205.36 169.18,-195.29 161.97,-186.84"/>
<polygon fill="none" stroke="black" points="164.39,-184.3 155.07,-179.26 159.22,-189.01 164.39,-184.3"/>
</g>
<!-- pread_footer -->
<g id="node7" class="node">
<title>pread_footer</title>
<ellipse fill="none" stroke="black" cx="104" cy="-306" rx="67.69" ry="18"/>
<text text-anchor="middle" x="104" y="-302.3" font-family="Helvetica,sans-Serif" font-size="14.00">pread_footer</text>
</g>
<!-- open&#45;&gt;pread_footer -->
<g id="edge8" class="edge">
<title>open&#45;&gt;pread_footer</title>
<path fill="none" stroke="black" d="M113.03,-359.7C111.71,-351.98 110.12,-342.71 108.65,-334.11"/>
<polygon fill="black" stroke="black" points="112.07,-333.37 106.93,-324.1 105.17,-334.55 112.07,-333.37"/>
</g>
<!-- deepest_level -->
<g id="node6" class="node">
<title>deepest_level</title>
<polygon fill="none" stroke="black" points="137,-108 27.74,-90 137,-72 246.26,-90 137,-108"/>
<text text-anchor="middle" x="137" y="-86.3" font-family="Helvetica,sans-Serif" font-size="14.00">deepest_level?</text>
</g>
<!-- pread_data&#45;&gt;deepest_level -->
<g id="edge5" class="edge">
<title>pread_data&#45;&gt;deepest_level</title>
<path fill="none" stroke="black" stroke-dasharray="5,2" d="M137,-143.7C137,-135.98 137,-126.71 137,-118.11"/>
<polygon fill="black" stroke="black" points="140.5,-118.1 137,-108.1 133.5,-118.1 140.5,-118.1"/>
</g>
<!-- deepest_level&#45;&gt;table_open -->
<g id="edge6" class="edge">
<title>deepest_level:e&#45;&gt;table_open:e</title>
<path fill="none" stroke="black" d="M255.09,-90.51C304.31,-97.41 242,-172.39 242,-233 242,-307 242,-307 242,-307 242,-367.04 287.89,-440.77 240.05,-449.2"/>
<ellipse fill="none" stroke="black" cx="250.99" cy="-90.25" rx="4" ry="4"/>
<polygon fill="none" stroke="black" points="239.69,-445.72 230,-450 240.25,-452.7 239.69,-445.72"/>
</g>
<!-- deepest_level&#45;&gt;end -->
<g id="edge7" class="edge">
<title>deepest_level&#45;&gt;end</title>
<path fill="none" stroke="black" d="M122.37,-74.15C113.52,-65.18 102.02,-53.52 91.88,-43.23"/>
<polygon fill="none" stroke="black" points="94.31,-40.7 84.8,-36.04 89.32,-45.62 94.31,-40.7"/>
</g>
<!-- pread_index -->
<g id="node8" class="node">
<title>pread_index</title>
<ellipse fill="none" stroke="black" cx="105" cy="-234" rx="65.79" ry="18"/>
<text text-anchor="middle" x="105" y="-230.3" font-family="Helvetica,sans-Serif" font-size="14.00">pread_index</text>
</g>
<!-- pread_footer&#45;&gt;pread_index -->
<g id="edge9" class="edge">
<title>pread_footer&#45;&gt;pread_index</title>
<path fill="none" stroke="black" d="M104.25,-287.7C104.36,-279.98 104.49,-270.71 104.61,-262.11"/>
<polygon fill="black" stroke="black" points="108.11,-262.15 104.76,-252.1 101.11,-262.05 108.11,-262.15"/>
</g>
<!-- pread_index&#45;&gt;pread_data -->
<g id="edge10" class="edge">
<title>pread_index&#45;&gt;pread_data</title>
<path fill="none" stroke="black" d="M112.75,-216.05C116.39,-208.09 120.81,-198.41 124.88,-189.51"/>
<polygon fill="black" stroke="black" points="128.13,-190.83 129.1,-180.28 121.76,-187.91 128.13,-190.83"/>
</g>
</g>
</svg>
