<?xml version="1.0" encoding="UTF-8" standalone="no"?>
<!DOCTYPE svg PUBLIC "-//W3C//DTD SVG 1.1//EN"
 "http://www.w3.org/Graphics/SVG/1.1/DTD/svg11.dtd">
<!-- Generated by graphviz version 2.43.0 (0)
 -->
<!-- Title: SCGraph Pages: 1 -->
<svg width="249pt" height="404pt"
 viewBox="0.00 0.00 248.72 404.00" xmlns="http://www.w3.org/2000/svg" xmlns:xlink="http://www.w3.org/1999/xlink">
<g id="graph0" class="graph" transform="scale(1 1) rotate(0) translate(4 400)">
<title>SCGraph</title>
<polygon fill="white" stroke="transparent" points="-4,4 -4,-400 244.72,-400 244.72,4 -4,4"/>
<!-- start -->
<g id="node1" class="node">
<title>start</title>
<text text-anchor="middle" x="88.64" y="-374.3" font-family="Helvetica,sans-Serif" font-size="14.00">start</text>
</g>
<!-- file_open -->
<g id="node2" class="node">
<title>file_open</title>
<polygon fill="none" stroke="black" points="88.64,-324 9.55,-306 88.64,-288 167.74,-306 88.64,-324"/>
<text text-anchor="middle" x="88.64" y="-302.3" font-family="Helvetica,sans-Serif" font-size="14.00">file_open?</text>
</g>
<!-- start&#45;&gt;file_open -->
<g id="edge1" class="edge">
<title>start&#45;&gt;file_open</title>
<path fill="none" stroke="black" d="M88.64,-359.7C88.64,-351.98 88.64,-342.71 88.64,-334.11"/>
<polygon fill="black" stroke="black" points="92.14,-334.1 88.64,-324.1 85.14,-334.1 92.14,-334.1"/>
</g>
<!-- open -->
<g id="node4" class="node">
<title>open</title>
<polygon fill="none" stroke="black" stroke-width="2" points="81.64,-252 27.64,-252 27.64,-216 81.64,-216 81.64,-252"/>
<text text-anchor="middle" x="54.64" y="-230.3" font-family="Helvetica,sans-Serif" font-size="14.00">open</text>
</g>
<!-- file_open&#45;&gt;open -->
<g id="edge2" class="edge">
<title>file_open&#45;&gt;open</title>
<path fill="none" stroke="black" d="M81.1,-289.46C77.11,-281.25 72.1,-270.93 67.51,-261.5"/>
<polygon fill="none" stroke="black" points="70.64,-259.93 63.12,-252.46 64.35,-262.99 70.64,-259.93"/>
</g>
<!-- pread -->
<g id="node5" class="node">
<title>pread</title>
<ellipse fill="none" stroke="black" cx="83.64" cy="-162" rx="36.29" ry="18"/>
<text text-anchor="middle" x="83.64" y="-158.3" font-family="Helvetica,sans-Serif" font-size="14.00">pread</text>
</g>
<!-- file_open&#45;&gt;pread -->
<g id="edge3" class="edge">
<title>file_open&#45;&gt;pread</title>
<path fill="none" stroke="black" d="M89.9,-288.25C91.03,-270.35 92.3,-241.14 90.64,-216 90.09,-207.53 89.04,-198.36 87.91,-190.06"/>
<polygon fill="none" stroke="black" points="91.37,-189.53 86.49,-180.13 84.44,-190.53 91.37,-189.53"/>
</g>
<!-- end -->
<g id="node3" class="node">
<title>end</title>
<text text-anchor="middle" x="83.64" y="-14.3" font-family="Helvetica,sans-Serif" font-size="14.00">end</text>
</g>
<!-- open&#45;&gt;pread -->
<g id="edge7" class="edge">
<title>open&#45;&gt;pread</title>
<path fill="none" stroke="black" d="M61.81,-215.7C65.08,-207.81 69.02,-198.3 72.65,-189.55"/>
<polygon fill="black" stroke="black" points="75.96,-190.68 76.56,-180.1 69.5,-188 75.96,-190.68"/>
</g>
<!-- has_more -->
<g id="node6" class="node">
<title>has_more</title>
<polygon fill="none" stroke="black" points="83.64,-108 -0.14,-90 83.64,-72 167.43,-90 83.64,-108"/>
<text text-anchor="middle" x="83.64" y="-86.3" font-family="Helvetica,sans-Serif" font-size="14.00">has_more?</text>
</g>
<!-- pread&#45;&gt;has_more -->
<g id="edge4" class="edge">
<title>pread&#45;&gt;has_more</title>
<path fill="none" stroke="black" stroke-dasharray="5,2" d="M83.64,-143.7C83.64,-135.98 83.64,-126.71 83.64,-118.11"/>
<polygon fill="black" stroke="black" points="87.14,-118.1 83.64,-108.1 80.14,-118.1 87.14,-118.1"/>
</g>
<!-- has_more&#45;&gt;file_open -->
<g id="edge6" class="edge">
<title>has_more:e&#45;&gt;file_open:e</title>
<path fill="none" stroke="black" d="M176.8,-90.54C261.3,-101.98 261.92,-291.11 178.67,-305.17"/>
<ellipse fill="none" stroke="black" cx="172.63" cy="-90.26" rx="4" ry="4"/>
<polygon fill="none" stroke="black" points="178.32,-301.69 168.64,-306 178.9,-308.67 178.32,-301.69"/>
</g>
<!-- has_more&#45;&gt;end -->
<g id="edge5" class="edge">
<title>has_more&#45;&gt;end</title>
<path fill="none" stroke="black" d="M83.64,-71.7C83.64,-63.98 83.64,-54.71 83.64,-46.11"/>
<polygon fill="none" stroke="black" points="87.14,-46.1 83.64,-36.1 80.14,-46.1 87.14,-46.1"/>
</g>
</g>
</svg>
